<?xml version="1.0" encoding="UTF-8"?>
<svg width="40px" height="40px" viewBox="0 0 40 40" version="1.1" xmlns="http://www.w3.org/2000/svg" xmlns:xlink="http://www.w3.org/1999/xlink">
    <!-- Generator: Sketch 51.2 (57519) - http://www.bohemiancoding.com/sketch -->
    <title>imessage-icon</title>
    <desc>Created with Sketch.</desc>
    <defs>
        <linearGradient x1="49.9844444%" y1="0.0311111111%" x2="49.9844444%" y2="99.9977778%" id="linearGradient-1">
            <stop stop-color="#67FF81" offset="0%"></stop>
            <stop stop-color="#01B41F" offset="100%"></stop>
        </linearGradient>
    </defs>
    <g id="imessage-icon" stroke="none" stroke-width="1" fill="none" fill-rule="evenodd">
        <g id="if_Apple_Messages_2697657" fill-rule="nonzero">
            <path d="M26.0444444,0 C30.0444444,0 32.0444444,0 34.2222222,0.666666667 C36.5777778,1.51111111 38.4444444,3.37777778 39.2888889,5.73333333 C40,7.91111111 40,9.95555556 40,13.9555556 L40,26.0444444 C40,30.0444444 40,32.0444444 39.3333333,34.2222222 C38.4888889,36.5777778 36.6222222,38.4444444 34.2666667,39.2888889 C32.0444444,40 30.0444444,40 26.0444444,40 L13.9555556,40 C9.95555556,40 7.95555556,40 5.77777778,39.3333333 C3.37777778,38.4444444 1.55555556,36.6222222 0.666666667,34.2222222 C0,32.0888889 0,30.0888889 0,26.0444444 L0,13.9555556 C0,9.95555556 0,7.95555556 0.666666667,5.77777778 C1.55555556,3.42222222 3.37777778,1.55555556 5.77777778,0.711111111 C7.91111111,0 9.91111111,0 13.9555556,0 L26.0444444,0 Z" id="Background_5_" fill="url(#linearGradient-1)"></path>
            <path d="M17.1289833,31.4794521 C18.0637329,31.6118721 18.9984825,31.7001522 19.9777441,31.7001522 C28.0789074,31.7001522 34.6666667,26.2709285 34.6666667,19.6057839 C34.6666667,12.9406393 28.1234193,7.55555556 20.0222559,7.55555556 C11.9210926,7.55555556 5.33333333,12.9847793 5.33333333,19.6499239 C5.33333333,24.0197869 8.1375822,27.8158295 12.3216995,29.934551 C12.3216995,30.0669711 12.3216995,30.1993912 12.3216995,30.3759513 C12.3216995,31.6560122 10.185129,33.3333333 10.3186646,33.3333333 C12.4552352,33.3333333 13.9686394,32.0091324 14.9924127,31.7001522 C15.8381386,31.4794521 16.3277693,31.435312 17.1289833,31.4794521 Z" id="Shape" fill="#FFFFFF"></path>
        </g>
    </g>
</svg>