<?xml version="1.0" encoding="UTF-8"?>
<svg width="230px" height="39px" viewBox="0 0 230 39" version="1.1" xmlns="http://www.w3.org/2000/svg" xmlns:xlink="http://www.w3.org/1999/xlink">
    <!-- Generator: Sketch 51.2 (57519) - http://www.bohemiancoding.com/sketch -->
    <title>prestashop_logo</title>
    <desc>Created with Sketch.</desc>
    <defs></defs>
    <g id="Page-1" stroke="none" stroke-width="1" fill="none" fill-rule="evenodd">
        <g id="Artboard" transform="translate(-1257.000000, -2886.000000)">
            <g id="support-all-platforms" transform="translate(58.000000, 2548.000000)">
                <g id="shop-logos" transform="translate(872.000000, 196.000000)">
                    <g id="Group-2" transform="translate(306.000000, 116.000000)">
                        <g id="prestashop_logo" transform="translate(20.980501, 26.176471)">
                            <g id="XMLID_323_" transform="translate(47.395150, 5.374221)" fill-rule="nonzero">
                                <path d="M36.143597,17.4949514 C36.1112682,17.3651187 36.1112682,17.1379116 36.1112682,16.8457881 C36.1112682,14.9632145 36.7255154,13.4701388 37.9863385,12.3990194 C39.2471617,11.3278999 40.6373,10.8085692 42.1567536,10.8085692 C44.1611391,10.8085692 45.5512774,11.5551071 46.3271686,13.0806408 L36.143597,17.4949514 Z M50.6915564,14.8009236 C50.6592276,12.5613102 49.8186789,10.7436529 48.1699101,9.34795177 C46.5211414,7.95225064 44.4197695,7.23817099 41.930452,7.23817099 C40.3463408,7.23817099 38.8268873,7.59521082 37.4044201,8.30929047 C35.981953,9.02337011 34.7857874,10.1269478 33.8159235,11.5875652 C32.8460595,13.0806408 32.3611275,14.8009236 32.3611275,16.7808718 C32.3611275,19.6371904 33.2986627,21.909262 35.173733,23.6295448 C37.0488034,25.3498276 39.2794905,26.226198 41.8657944,26.226198 C44.8400439,26.226198 47.4263478,25.0901622 49.5923773,22.8180906 L47.3293614,20.2863537 C46.0038806,21.909262 44.2904543,22.7207161 42.2214112,22.7207161 C40.152368,22.7207161 38.5359281,21.9741783 37.3397625,20.5135608 L50.7238852,14.86584 L50.6915564,14.8009236 Z" id="XMLID_341_" fill="#1F0047"></path>
                                <path d="M27.9320821,8.3742068 C26.8652318,9.12074461 26.024683,10.0620314 25.378107,11.2305254 L25.378107,7.53029448 L21.4986512,7.53029448 L21.4986512,25.9665327 L25.378107,25.9665327 L25.378107,18.0467402 C25.378107,15.9369594 25.863039,14.281593 26.832903,13.0157245 C27.8027669,11.7823142 29.2252341,11.1331509 31.1326332,11.1331509 L31.326606,11.1331509 L31.2942772,7.20571283 C30.1304404,7.27062916 28.9989325,7.62766898 27.9320821,8.3742068" id="XMLID_189_" fill="#1F0047"></path>
                                <path d="M64.5606111,16.5536646 C63.9463639,16.1317084 63.3644455,15.8071268 62.814856,15.5799196 C62.2652664,15.3527125 61.7156768,15.1255053 61.1337584,14.9632145 C60.55184,14.7684655 59.9052641,14.6061746 59.1617017,14.4114257 C58.4181393,14.2166767 57.836221,14.0219277 57.4159466,13.8271787 C56.8016994,13.5350552 56.5107402,13.113099 56.5107402,12.4963939 C56.5107402,11.8147724 56.8016994,11.3278999 57.3836178,11.0033182 C57.9655361,10.6787366 58.7090985,10.5164457 59.6143049,10.5164457 C61.36006,10.5164457 62.9765,11.0033182 64.4959535,12.0095214 L65.9507494,9.12074461 C64.0756791,7.88733431 62.0712936,7.23817099 59.9375929,7.23817099 C57.8038922,7.23817099 56.0904658,7.75750165 54.7649851,8.79616295 C53.4395043,9.83482426 52.7929283,11.1980672 52.7929283,12.91835 C52.7929283,15.3527125 54.7003275,17.0729953 58.5151257,18.1116566 C58.6121121,18.1441147 58.7414273,18.1765729 58.9354001,18.2414892 C61.36006,18.988027 62.5885544,19.7994812 62.5885544,20.740768 C62.5885544,21.3574731 62.329924,21.8768038 61.844992,22.29876 C61.3277312,22.688258 60.6488264,22.9154651 59.7759489,22.9154651 C57.7715634,22.9154651 55.7025202,22.104011 53.5688195,20.4811027 L51.6937492,23.4997121 C52.7929283,24.3760826 54.0537515,25.0577041 55.5085474,25.5445765 C56.9310146,26.031449 58.3211529,26.2586562 59.6789625,26.2586562 C61.6510192,26.2586562 63.2674591,25.7393255 64.5606111,24.6682061 C65.8214342,23.6295448 66.4680102,22.2013855 66.4680102,20.4486445 C66.4356814,18.6959035 65.8214342,17.3975769 64.5606111,16.5536646" id="XMLID_188_" fill="#1F0047"></path>
                                <path d="M13.4164515,13.8271787 C12.6082315,14.7035491 11.0564492,15.1255053 8.79343326,15.1255053 L4.07342864,15.1255053 L4.07342864,5.4205137 L8.21151488,5.4205137 C10.4098732,5.4205137 12.0586419,5.77755353 13.0931635,6.45917501 C14.1276851,7.14079649 14.6449458,8.34174863 14.6449458,9.99711509 C14.612617,11.7173979 14.2246714,12.9832664 13.4164515,13.8271787 M16.2937146,3.83006357 C14.612617,2.43436244 11.9293267,1.72028279 8.27617248,1.72028279 L0,1.72028279 L0,25.9665327 L4.07342864,25.9665327 L4.07342864,18.8581944 L8.34083008,18.8581944 C11.8969979,18.8581944 14.5156306,18.1765729 16.229057,16.8133299 C17.9424833,15.450087 18.8153609,13.307848 18.8153609,10.3541549 C18.8153609,7.43291999 17.9748121,5.25822287 16.2937146,3.83006357" id="XMLID_336_" fill="#1F0047"></path>
                                <path d="M75.4877451,22.8830069 C74.6471963,22.8830069 74.0006203,22.6233416 73.5480171,22.104011 C73.095414,21.5846803 72.8691124,20.8706007 72.8691124,19.9942302 L72.8691124,10.6462784 L77.7184322,10.6462784 L77.7184322,7.53029448 L72.8691124,7.53029448 L72.8691124,1.75274096 L68.9896565,1.75274096 L68.9896565,19.9293139 C68.9896565,21.8768038 69.5715749,23.4023376 70.7354116,24.5708316 C71.8992484,25.7068674 73.2893868,26.2911144 74.9381555,26.2911144 C76.5869242,26.2911144 78.074049,25.6744092 79.4318585,24.4409989 L77.8477474,21.714513 C77.104185,22.4610508 76.295965,22.8830069 75.4877451,22.8830069" id="XMLID_185_" fill="#1F0047"></path>
                                <path d="M93.171598,21.130266 C92.1047476,22.2663018 90.8115957,22.8180906 89.2921421,22.8180906 C87.7726886,22.8180906 86.4472078,22.2663018 85.3156999,21.1627242 C84.1841919,20.0591465 83.6346023,18.598529 83.6346023,16.8457881 C83.6346023,15.0930471 84.1841919,13.5999715 85.2833711,12.4314775 C86.3825502,11.2629836 87.708031,10.6787366 89.2598133,10.6787366 C90.8115957,10.6787366 92.1047476,11.2629836 93.171598,12.4314775 C94.2384483,13.5999715 94.7557091,15.0930471 94.7557091,16.8457881 C94.7557091,18.5660709 94.2384483,19.9942302 93.171598,21.130266 Z M94.6910515,10.7111947 C93.1392692,8.40666496 91.1348837,7.23817099 88.7102238,7.23817099 C86.2855638,7.23817099 84.1841919,8.0820833 82.4384368,9.8023661 C80.6603529,11.5226489 79.7874753,13.7947205 79.7874753,16.6510391 C79.7874753,19.5073577 80.6603529,21.8443456 82.3737792,23.5970866 C84.0872055,25.3498276 86.1239199,26.226198 88.4515934,26.226198 C89.6154301,26.226198 90.7469381,25.9340745 91.878446,25.3822857 C93.009954,24.8304969 93.9474891,23.9865846 94.6910515,22.9479233 L94.6910515,25.9665327 L98.5705074,25.9665327 L98.5705074,7.53029448 L94.6910515,7.53029448 L94.6910515,10.7111947 Z" id="XMLID_332_" fill="#1F0047"></path>
                                <path d="M155.889468,21.0978078 C154.790288,22.2338436 153.40015,22.7856324 151.719053,22.7856324 C150.037955,22.7856324 148.647817,22.2338436 147.548637,21.0978078 C146.449458,19.961772 145.899869,18.5336127 145.899869,16.7484136 C145.899869,14.9632145 146.449458,13.5350552 147.548637,12.3990194 C148.647817,11.2629836 150.037955,10.7111947 151.719053,10.7111947 C153.40015,10.7111947 154.790288,11.2629836 155.889468,12.3990194 C156.988647,13.5350552 157.538236,14.9632145 157.538236,16.7484136 C157.538236,18.5011546 156.988647,19.961772 155.889468,21.0978078 M151.719053,7.23817099 C148.971105,7.23817099 146.643431,8.14699964 144.80069,9.99711509 C142.957948,11.8472305 142.052742,14.086844 142.052742,16.7484136 C142.052742,19.4099832 142.957948,21.6495966 144.80069,23.4997121 C146.643431,25.3498276 148.938776,26.2586562 151.719053,26.2586562 C154.499329,26.2586562 156.794674,25.3498276 158.637415,23.4997121 C160.480157,21.6495966 161.385363,19.4099832 161.385363,16.7484136 C161.385363,14.086844 160.480157,11.8472305 158.637415,9.99711509 C156.794674,8.14699964 154.499329,7.23817099 151.719053,7.23817099" id="XMLID_329_" fill="#E2056F"></path>
                                <path d="M176.870858,21.0978078 C175.73935,22.2013855 174.413869,22.7531743 172.894416,22.7531743 C171.374962,22.7531743 170.08181,22.2013855 169.01496,21.0653497 C167.948109,19.9293139 167.430849,18.5011546 167.430849,16.7484136 C167.430849,14.9956726 167.948109,13.5350552 169.01496,12.3665612 C170.08181,11.1980672 171.374962,10.6138202 172.926744,10.6138202 C174.478527,10.6138202 175.804008,11.1980672 176.903187,12.3665612 C178.002366,13.5350552 178.551955,14.9956726 178.551955,16.7808718 C178.584284,18.5660709 178.002366,19.9942302 176.870858,21.0978078 M179.812779,9.8023661 C178.067023,8.0820833 175.965652,7.23817099 173.508663,7.23817099 C171.051674,7.23817099 169.047289,8.40666496 167.527835,10.7436529 L167.527835,7.53029448 L163.648379,7.53029448 L163.648379,32.685373 L167.527835,32.685373 L167.527835,23.1751304 C169.370577,25.2199949 171.43962,26.226198 173.767293,26.226198 C176.094967,26.226198 178.099352,25.3498276 179.845107,23.5646284 C181.590863,21.7794293 182.46374,19.4748995 182.46374,16.6185809 C182.46374,13.7622623 181.558534,11.5226489 179.812779,9.8023661" id="XMLID_326_" fill="#E2056F"></path>
                                <path d="M133.065336,7.23817099 C131.772184,7.23817099 130.576018,7.56275265 129.44451,8.21191597 C128.313002,8.86107929 127.504782,9.73744976 126.955193,10.8734856 L126.955193,0.259665327 L123.075737,0.259665327 L123.075737,25.9665327 L126.955193,25.9665327 L126.955193,15.9694176 C126.955193,14.2491348 127.440125,12.9508082 128.442317,12.0744377 C129.44451,11.1980672 130.608347,10.7436529 131.933828,10.7436529 C134.746433,10.7436529 136.136572,12.4314775 136.136572,15.8395849 L136.136572,25.9665327 L140.016027,25.9665327 L140.016027,14.671091 C140.016027,12.2691867 139.369451,10.4190712 138.108628,9.15320278 C136.783147,7.88733431 135.134379,7.23817099 133.065336,7.23817099" id="XMLID_178_" fill="#E2056F"></path>
                                <path d="M118.452719,14.3140512 C117.191895,13.2429317 115.349154,12.3990194 112.859836,11.7823142 C110.370519,11.1656091 108.754079,10.6138202 108.010517,10.0944896 C107.266954,9.57515893 106.879009,8.82862112 106.879009,7.85487614 C106.879009,6.88113117 107.266954,6.13459335 108.010517,5.64772086 C108.754079,5.16084838 109.756272,4.93364121 110.920108,4.93364121 C112.116274,4.93364121 113.31244,5.12839021 114.540934,5.55034637 C115.769428,5.97230252 116.739292,6.49163318 117.450526,7.14079649 L119.616555,4.05727074 C118.517376,3.14844209 117.191895,2.40190428 115.672442,1.91503179 C114.152988,1.39570113 112.633535,1.16849397 111.081752,1.16849397 C108.689421,1.16849397 106.685036,1.78519912 105.068596,2.98615126 C103.452156,4.1871034 102.643936,5.93984436 102.643936,8.1794578 C102.643936,10.4190712 103.35517,12.0744377 104.777637,13.1780153 C105.48887,13.7622623 106.29709,14.2166767 107.234625,14.5737165 C108.139832,14.9307563 109.497641,15.3202543 111.275725,15.7422105 C113.053809,16.1641666 114.282304,16.6510391 115.025866,17.1703698 C115.737099,17.6897004 116.125045,18.4037801 116.125045,19.3450669 C116.125045,20.2863537 115.737099,21.0328915 114.961208,21.5846803 C114.185317,22.1364691 113.150796,22.4285926 111.825315,22.4285926 C109.206682,22.4285926 106.685036,21.3574731 104.228047,19.2476924 L101.674072,22.3312181 C104.583664,24.9278714 107.945859,26.2586562 111.728328,26.2586562 C114.314632,26.2586562 116.383675,25.6094929 117.967787,24.2787081 C119.551898,22.9479233 120.360118,21.2600987 120.360118,19.1178597 C120.360118,16.9756208 119.713542,15.3851706 118.452719,14.3140512" id="XMLID_177_" fill="#E2056F"></path>
                            </g>
                            <path d="M12.082917,29.1020127 C12.3721357,28.9712172 12.6934899,28.8404216 12.9827087,28.7423249 C13.3361982,28.6115294 13.6575524,28.4807338 14.011042,28.3826371 C14.4609379,28.2518416 14.8786983,28.121046 15.3285941,28.0229493 C15.9391671,27.8921538 16.54974,27.7940571 17.1603129,27.7286593 C16.8068233,28.8404216 16.4211983,29.919485 16.0355733,31.0312473 C16.0677087,31.2274406 16.0677087,31.4563329 16.0677087,31.6525262 C16.9032296,31.4890318 17.7708859,31.3909351 18.6385421,31.3909351 C19.5061984,31.3909351 20.3738547,31.4890318 21.2093755,31.6525262 C21.2093755,31.423634 21.2093755,31.2274406 21.2415109,31.0312473 C20.8237505,29.9521839 20.4381255,28.8404216 20.1167713,27.7286593 C20.7273443,27.7940571 21.3379172,27.8921538 21.9484901,28.0229493 C22.398386,28.121046 22.8482818,28.2518416 23.2660422,28.3826371 C23.6195318,28.4807338 23.9730214,28.6115294 24.2943756,28.7423249 C24.5835944,28.8731205 24.9049485,28.9712172 25.1941673,29.1020127 C27.3151048,30.0502806 29.2432299,31.4890318 30.8178654,33.3201696 C34.7705217,29.8540872 37.2770843,24.6876625 37.2770843,18.9653566 C37.2770843,8.46901269 28.9218757,0 18.6385421,0 C8.32307312,0 0,8.50171158 0,18.9653566 C0,24.7203614 2.50656256,29.8540872 6.45921891,33.3201696 C8.03385437,31.4563329 9.96197942,30.0502806 12.082917,29.1020127 Z" id="XMLID_176_" fill="#A0DBE8" fill-rule="nonzero"></path>
                            <path d="M13.640955,32.7827475 C14.5257737,32.3879068 15.4761345,32.0917763 16.4592664,31.8943559 C16.4592664,31.6640322 16.4592664,31.4666118 16.4264954,31.2691914 C16.8525192,30.1833795 17.245772,29.0646641 17.5734826,27.9459487 C16.9508324,28.0117555 16.3281822,28.1104657 15.705532,28.2420793 C15.2467371,28.3407894 14.7879422,28.472403 14.3619184,28.6040166 C14.0014367,28.7027268 13.640955,28.8343403 13.3132444,28.9659539 L14.689629,29.2949878 L13.640955,32.7827475 Z" id="XMLID_175_" fill="#525353" fill-rule="nonzero"></path>
                            <path d="M10.70537,34.693269 C10.7388433,34.3218569 10.7723166,33.9504448 10.7723166,33.5790326 C10.7723166,33.3426795 10.9396831,33.1738558 11.1739962,33.1738558 L11.5422025,33.1738558 L12.7807146,29.0207929 C10.5714768,29.9999703 8.56307879,31.4856188 6.92288708,33.3764442 C7.82666618,34.1530332 8.79739189,34.8620927 9.86853749,35.469858 C10.1363239,35.2335048 10.4041103,34.9633869 10.70537,34.693269 Z" id="XMLID_174_" fill="#525353" fill-rule="nonzero"></path>
                            <path d="M25.5614292,29.0207929 L26.7929043,33.1522252 L27.1590185,33.1522252 C27.3920003,33.1522252 27.5584159,33.3201696 27.5584159,33.5552918 C27.5584159,33.9247695 27.591699,34.2942472 27.6249821,34.6637249 C27.9245301,34.9324359 28.2240781,35.2011469 28.490343,35.469858 C29.5221194,34.8652581 30.4873296,34.1598916 31.4192567,33.3873474 C29.7551012,31.4391923 27.7581145,29.9948704 25.5614292,29.0207929 Z" id="XMLID_173_" fill="#525353" fill-rule="nonzero"></path>
                            <path d="M23.119985,29.2949878 L24.4963697,28.9659539 C24.135888,28.8343403 23.8081773,28.7027268 23.4476956,28.6040166 C22.9889008,28.472403 22.5628769,28.3407894 22.1040821,28.2420793 C21.4814319,28.1104657 20.8587817,28.0117555 20.2361315,27.9459487 C20.5966132,29.0646641 20.9898659,30.1504761 21.3831187,31.2691914 C21.3503476,31.4666118 21.3503476,31.6969356 21.3503476,31.8943559 C22.3334795,32.0917763 23.2838403,32.3879068 24.168659,32.7827475 L23.119985,29.2949878 Z" id="XMLID_172_" fill="#525353" fill-rule="nonzero"></path>
                            <path d="M19.1710719,33.3201696 L21.8337208,33.3201696 C21.7687781,32.8638679 21.7687781,32.4075661 21.7687781,31.9512643 C20.9245236,31.7991637 20.0477978,31.7079034 19.1710719,31.7079034 C18.2943461,31.7079034 17.4176202,31.7991637 16.5733657,31.9512643 C16.5733657,32.4075661 16.5733657,32.8638679 16.508423,33.3201696 L19.1710719,33.3201696 Z" id="XMLID_171_" fill="#000000" fill-rule="nonzero"></path>
                            <path d="M9.58553595,35.6694719 C9.88375263,35.7923112 10.1819693,35.9151506 10.4375836,36.0072801 C10.5227884,35.6387621 10.6079931,35.3009539 10.6505955,34.9324359 C10.3097764,35.1781146 9.96895739,35.4237932 9.58553595,35.6694719 Z" id="XMLID_170_" fill="#000000" fill-rule="nonzero"></path>
                            <path d="M13.3132444,33.3201696 L16.4389626,33.3201696 C16.508423,32.7827475 16.508423,32.2453254 16.508423,31.7079034 C15.4665169,31.9228722 14.4593411,32.2453254 13.5216256,32.6752631 L13.3132444,33.3201696 Z" id="XMLID_169_" fill="#000000" fill-rule="nonzero"></path>
                            <path d="M27.6915483,34.9324359 C27.7341507,35.3009539 27.8193555,35.6694719 27.9045602,36.0072801 C28.2027769,35.8844407 28.5009936,35.7923112 28.7566079,35.6694719 C28.4157888,35.4237932 28.0749697,35.1781146 27.6915483,34.9324359 Z" id="XMLID_168_" fill="#000000" fill-rule="nonzero"></path>
                            <path d="M24.4963697,33.3201696 L24.3208104,32.6752631 C23.3727904,32.2453254 22.3545466,31.9228722 21.301191,31.7079034 C21.301191,32.2453254 21.301191,32.7827475 21.3714147,33.3201696 L24.4963697,33.3201696 Z" id="XMLID_167_" fill="#000000" fill-rule="nonzero"></path>
                            <path d="M13.2734291,33.3201696 L13.4227365,32.7426414 L14.3783039,29.3416419 L13.1241217,29.0207929 C12.8553683,29.1491325 12.5567535,29.2453872 12.2880001,29.3737268 L11.1831253,33.3201696 L12.3775846,33.3201696 L13.2734291,33.3201696 Z" id="XMLID_166_" fill="#AA9678" fill-rule="nonzero"></path>
                            <path d="M24.3868776,32.7426414 L24.536185,33.3201696 L25.4320295,33.3201696 L26.6264888,33.3201696 L25.5216139,29.3737268 C25.2528606,29.2453872 24.9542457,29.1170476 24.6854924,29.0207929 L23.4313101,29.3416419 L24.3868776,32.7426414 Z" id="XMLID_165_" fill="#AA9678" fill-rule="nonzero"></path>
                            <path d="M11.1831253,33.9113339 C11.1831253,33.9113339 11.2363783,33.8575917 11.2363783,33.8575917 L11.1831253,33.9113339 C11.1831253,33.9113339 11.1831253,33.9113339 11.1831253,33.9113339 Z" id="XMLID_164_" fill="#C0B098" fill-rule="nonzero"></path>
                            <path d="M19.1389918,33.8575917 L16.4121827,33.8575917 L13.4287328,33.8575917 L11.5039263,33.8575917 C11.5039263,33.8575917 11.4718462,33.8922641 11.4718462,33.8922641 C11.4397661,34.6897292 11.3435258,35.4525218 11.1831253,36.2153144 C13.5891333,37.4635206 16.3159424,38.1569684 19.1710719,38.1569684 L19.1710719,33.8575917 L19.1389918,33.8575917 Z" id="XMLID_163_" fill="#C0B098" fill-rule="nonzero"></path>
                            <path d="M26.6797417,33.8575917 L26.6264888,33.8575917 C26.6264888,33.9113339 26.6797417,33.9113339 26.6797417,33.8575917 C26.6797417,33.9113339 26.6797417,33.9113339 26.6797417,33.8575917 Z" id="XMLID_162_" fill="#AA9678" fill-rule="nonzero"></path>
                            <path d="M26.8061374,33.8575917 L24.8813309,33.8575917 L21.897881,33.8575917 L19.1710719,33.8575917 L19.1710719,37.6195464 C22.0262014,37.6195464 24.7209304,37.0078464 27.1590185,35.9067865 C26.998618,35.2339166 26.9023777,34.5610467 26.8702976,33.8575917 C26.8382175,33.8881767 26.8061374,33.8881767 26.8061374,33.8575917 Z" id="XMLID_161_" fill="#AA9678" fill-rule="nonzero"></path>
                            <rect id="XMLID_160_" fill="#786453" fill-rule="nonzero" x="19.1710719" y="33.8575917" width="1" height="1"></rect>
                            <path d="M27.6312511,34.9147187 C27.5987591,34.52494 27.5662671,34.1351614 27.5662671,33.7453827 C27.5662671,33.4973417 27.4038072,33.3201696 27.1763632,33.3201696 L26.8189512,33.3201696 L25.5192714,33.3201696 L24.5445116,33.3201696 L21.620232,33.3201696 L18.9558884,33.3201696 L16.2915448,33.3201696 L13.3672652,33.3201696 L12.3925054,33.3201696 L11.0928256,33.3201696 L10.7354136,33.3201696 C10.5079697,33.3201696 10.3455097,33.4973417 10.3455097,33.7453827 C10.3455097,34.1351614 10.3130177,34.52494 10.2805257,34.9147187 C10.2480337,35.3399318 10.1830497,35.7651449 10.1180657,36.1549235 C10.3455097,36.2966612 10.6054457,36.4383989 10.8328896,36.5447022 C10.9953496,35.7651449 11.0928256,34.9855875 11.1253176,34.1705958 C11.1253176,34.1705958 11.1253176,34.1351614 11.1253176,34.1351614 L11.1578096,34.1351614 L13.1073293,34.1351614 L16.1290848,34.1351614 L18.8909044,34.1351614 L21.652724,34.1351614 L24.6744796,34.1351614 L26.6239993,34.1351614 L26.6564913,34.1351614 C26.6564913,34.1351614 26.6564913,34.1705958 26.6564913,34.1705958 C26.6889833,34.9855875 26.7864593,35.7651449 26.9489192,36.5447022 C27.1763632,36.4029645 27.4362992,36.2966612 27.6637431,36.1549235 C27.7287271,35.7651449 27.6637431,35.3399318 27.6312511,34.9147187 Z" id="XMLID_159_" fill="#8B7460" fill-rule="nonzero"></path>
                            <g id="XMLID_195_" transform="translate(5.325298, 5.911643)">
                                <path d="M19.6738791,10.4207454 C19.6738791,10.4207454 19.6738791,10.4207454 19.6738791,10.4207454 C19.8992754,11.1089079 20.1890707,11.7970703 20.3178686,12.5180024 C20.3178686,12.5835416 20.3178686,12.6163113 20.3178686,12.6818506 C20.3178686,12.7473898 20.2856691,12.8129291 20.2856691,12.8784684 C20.3178686,12.7801595 20.3178686,12.6818506 20.3500681,12.550772 C20.1890707,11.8298399 19.9314749,11.1089079 19.6738791,10.4207454 C19.6738791,10.4207454 19.6738791,10.4207454 19.6738791,10.4207454 C19.6738791,10.4207454 19.6738791,10.4207454 19.6738791,10.4207454 Z" id="XMLID_158_"></path>
                                <path d="M25.1155903,14.7135682 C25.1155903,14.7463379 25.1155903,14.7463379 25.1155903,14.7135682 C25.1155903,14.7463379 25.1155903,14.7463379 25.1155903,14.7135682 Z" id="XMLID_157_"></path>
                                <path d="M25.2443882,14.6480289 C25.2443882,14.6480289 25.2121888,14.6807986 25.2121888,14.6807986 C25.2121888,14.6480289 25.2443882,14.6480289 25.2443882,14.6480289 Z" id="XMLID_156_"></path>
                                <path d="M19.126488,9.92920082 C18.7078948,9.56873479 18.2571022,9.20826875 17.7741101,8.91334199 C18.2249027,9.20826875 18.6756954,9.56873479 19.126488,9.92920082 Z" id="XMLID_155_"></path>
                                <path d="M23.4412176,14.4841807 C23.4734171,14.4841807 23.4734171,14.4841807 23.4412176,14.4841807 C23.4734171,14.4841807 23.4734171,14.4841807 23.4412176,14.4841807 Z" id="XMLID_154_"></path>
                                <path d="M24.2462045,15.5000396 C24.2462045,15.5000396 24.278404,15.5328092 24.278404,15.5328092 C24.278404,15.5328092 24.2462045,15.5000396 24.2462045,15.5000396 Z" id="XMLID_153_"></path>
                                <path d="M20.2534696,12.911238 C20.2534696,12.9767773 20.2212702,13.009547 20.2212702,13.0750862 C20.2212702,13.009547 20.2534696,12.9767773 20.2534696,12.911238 Z" id="XMLID_152_"></path>
                                <path d="M18.4180996,19.8584016 C18.1283043,20.3499462 17.9351075,20.8087212 17.838509,21.2347265 C17.9673069,20.7759516 18.1283043,20.3171766 18.4180996,19.8584016 C18.514698,19.6945534 18.6112964,19.5307053 18.7078948,19.3996267 C18.6112964,19.5307053 18.514698,19.6945534 18.4180996,19.8584016 C18.4180996,19.825632 18.4180996,19.8584016 18.4180996,19.8584016 Z" id="XMLID_151_"></path>
                                <path d="M19.6738791,10.4207454 C19.7060786,10.3879758 19.7060786,10.3552061 19.738278,10.3224365 C19.7060786,10.3552061 19.7060786,10.3879758 19.6738791,10.4207454 C19.7704775,10.5190543 19.8992754,10.6173633 19.9958738,10.7156722 C19.8992754,10.6173633 19.802677,10.5190543 19.6738791,10.4207454 Z" id="XMLID_150_"></path>
                                <path d="M17.0979211,8.55287596 C17.0657216,8.55287596 17.0657216,8.52010632 17.0335222,8.52010632 C17.0657216,8.52010632 17.0657216,8.52010632 17.0979211,8.55287596 Z" id="XMLID_147_"></path>
                                <path d="M17.1945195,8.5856456 C17.1623201,8.55287596 17.1301206,8.55287596 17.1301206,8.55287596 C17.1301206,8.55287596 17.1623201,8.5856456 17.1945195,8.5856456 Z" id="XMLID_146_"></path>
                                <path d="M17.8063096,10.1258187 C17.8063096,10.1585883 17.8063096,10.2241276 17.8063096,10.2568972 C17.8063096,10.2241276 17.8063096,10.1585883 17.8063096,10.1258187 Z" id="XMLID_145_"></path>
                                <path d="M25.0189919,16.4831288 C25.0511914,16.5158984 25.0511914,16.548668 25.0833909,16.5814377 C25.0511914,16.548668 25.0189919,16.5158984 25.0189919,16.4831288 Z" id="XMLID_143_"></path>
                                <path d="M17.8063096,10.7156722 C17.8063096,10.91229 17.8063096,11.1089079 17.7741101,11.3055257 C17.8063096,11.1089079 17.8063096,10.91229 17.8063096,10.7156722 Z" id="XMLID_142_"></path>
                                <path d="M17.7419106,8.91334199 C17.6775117,8.88057235 17.4843148,8.78226344 17.3233174,8.68395452 C17.4843148,8.7494938 17.6453122,8.84780271 17.7419106,8.91334199 Z" id="XMLID_140_"></path>
                                <path d="M17.3233174,8.65118488 C17.291118,8.61841524 17.2589185,8.61841524 17.1945195,8.5856456 C17.226719,8.61841524 17.2589185,8.65118488 17.3233174,8.65118488 Z" id="XMLID_139_"></path>
                                <path d="M17.7741101,8.91334199 C17.7741101,8.91334199 17.7419106,8.91334199 17.7741101,8.91334199 C17.7419106,8.91334199 17.7741101,8.91334199 17.7741101,8.91334199 Z" id="XMLID_138_"></path>
                                <path d="M25.6307819,13.5338612 C25.6307819,13.5338612 25.6307819,13.5010915 25.6307819,13.5010915 C25.6307819,13.5010915 25.6307819,13.5010915 25.6307819,13.5010915 C25.6307819,13.5010915 25.6307819,13.5010915 25.6307819,13.5010915 C25.6307819,13.5010915 25.6307819,13.4683219 25.6307819,13.4683219 C25.6307819,13.4683219 25.6307819,13.5010915 25.6307819,13.5010915 C25.6307819,13.5010915 25.6307819,13.5338612 25.6307819,13.5338612 Z" id="XMLID_137_"></path>
                                <path d="M22.5718318,13.4355523 C22.6040313,13.4683219 22.6040313,13.4683219 22.6362308,13.5010915 C22.6362308,13.5010915 22.6362308,13.5010915 22.6362308,13.5010915 C22.6362308,13.4683219 22.6040313,13.4683219 22.5718318,13.4355523 Z" id="XMLID_136_"></path>
                                <path d="M20.0280733,10.7156722 C20.2856691,10.9450597 20.5110654,11.1744471 20.7686612,11.4366042 C20.5110654,11.2072168 20.2534696,10.9450597 20.0280733,10.7156722 Z" id="XMLID_135_"></path>
                                <path d="M24.890194,12.190306 C24.9223935,12.190306 24.9867924,12.190306 25.0189919,12.2230756 C24.9867924,12.190306 24.9223935,12.190306 24.890194,12.190306 Z" id="XMLID_134_"></path>
                                <path d="M24.1818056,13.1078559 C24.1818056,13.1406255 24.1818056,13.1406255 24.1818056,13.1733952 C24.1496061,13.1733952 24.1496061,13.1406255 24.1818056,13.1078559 Z" id="XMLID_133_"></path>
                                <path d="M25.0511914,12.2230756 C25.0833909,12.2230756 25.1155903,12.2558452 25.1477898,12.2558452 C25.1155903,12.2558452 25.0833909,12.2230756 25.0511914,12.2230756 Z" id="XMLID_132_"></path>
                                <path d="M25.3409867,12.4524631 C25.3409867,12.4524631 25.3731861,12.4852327 25.3731861,12.4852327 C25.3731861,12.4852327 25.3409867,12.4852327 25.3409867,12.4524631 Z" id="XMLID_131_"></path>
                                <path d="M25.6307819,13.7632487 C25.6307819,13.7632487 25.6307819,13.7632487 25.6307819,13.7632487 C25.6307819,13.7632487 25.6307819,13.7632487 25.6307819,13.7632487 C25.6307819,13.7632487 25.6307819,13.7960183 25.6307819,13.7632487 C25.6307819,13.7960183 25.6307819,13.7632487 25.6307819,13.7632487 Z" id="XMLID_129_"></path>
                                <path d="M24.4072019,12.5180024 C24.4072019,12.5180024 24.4394014,12.4852327 24.4394014,12.4852327 C24.4072019,12.4852327 24.4072019,12.4852327 24.4072019,12.5180024 Z" id="XMLID_128_"></path>
                                <path d="M24.7613961,12.190306 C24.7935956,12.190306 24.8579945,12.1575363 24.890194,12.1575363 C24.8257951,12.190306 24.7935956,12.190306 24.7613961,12.190306 Z" id="XMLID_127_"></path>
                                <path d="M21.4448502,12.1575363 C21.3160523,12.0264578 21.2194539,11.9281488 21.090656,11.7970703 C21.1872544,11.8953792 21.3160523,12.0264578 21.4448502,12.1575363 Z" id="XMLID_126_"></path>
                                <path d="M24.890194,8.02856172 C24.890194,8.02856172 24.890194,8.02856172 24.890194,8.02856172 L24.890194,9.79812227 L24.214005,12.911238 C24.214005,12.911238 24.214005,12.9440077 24.214005,12.9440077 C24.214005,12.9440077 24.214005,12.9440077 24.214005,12.911238 L24.890194,9.79812227 L24.890194,8.02856172 Z" id="XMLID_125_"></path>
                                <path d="M22.0566402,12.8129291 C21.9922413,12.7473898 21.9278423,12.6818506 21.8634434,12.6163113 C21.9278423,12.6818506 21.9922413,12.7473898 22.0566402,12.8129291 Z" id="XMLID_124_"></path>
                                <path d="M25.5341835,12.8784684 C25.5341835,12.911238 25.566383,12.911238 25.566383,12.9440077 C25.566383,12.9440077 25.566383,12.9440077 25.566383,12.9440077 C25.566383,12.9440077 25.566383,12.911238 25.5341835,12.8784684 Z" id="XMLID_123_"></path>
                                <path d="M24.1174066,13.4683219 C24.1174066,13.4683219 24.1174066,13.4355523 24.1174066,13.4355523 C24.1496061,13.4683219 24.1174066,13.4683219 24.1174066,13.4683219 Z" id="XMLID_122_"></path>
                                <path d="M24.6325982,12.2558452 C24.6647977,12.2230756 24.6969972,12.2230756 24.7291966,12.2230756 C24.6647977,12.2230756 24.6647977,12.2558452 24.6325982,12.2558452 Z" id="XMLID_121_"></path>
                                <path d="M24.4716008,12.3869238 C24.5038003,12.3541542 24.5359998,12.3213845 24.5681993,12.2886149 C24.5359998,12.3213845 24.5038003,12.3541542 24.4716008,12.3869238 Z" id="XMLID_120_"></path>
                                <path d="M25.566383,14.0254058 C25.566383,14.0254058 25.566383,14.0254058 25.566383,14.0254058 C25.5341835,14.0909451 25.5341835,14.1564843 25.501984,14.2220236 C25.5341835,14.1564843 25.566383,14.0909451 25.566383,14.0254058 Z" id="XMLID_119_"></path>
                                <path d="M2.80135431,12.911238 C2.83355378,12.8784684 2.86575326,12.8129291 2.89795273,12.7801595 C2.86575326,12.8129291 2.83355378,12.8456988 2.80135431,12.911238 Z" id="XMLID_118_"></path>
                                <path d="M25.1799893,12.2886149 C25.2121888,12.3213845 25.2443882,12.3541542 25.2765877,12.3869238 C25.2443882,12.3541542 25.2121888,12.3213845 25.1799893,12.2886149 Z" id="XMLID_117_"></path>
                                <path d="M3.3165459,12.1247667 C3.3165459,12.091997 3.34874538,12.091997 3.34874538,12.0592274 C3.34874538,12.0592274 3.34874538,12.091997 3.3165459,12.1247667 Z" id="XMLID_116_"></path>
                                <path d="M1.99636744,14.4186415 C1.96416796,14.4841807 1.93196849,14.54972 1.89976901,14.6152593 C1.93196849,14.54972 1.96416796,14.4841807 1.99636744,14.4186415 Z" id="XMLID_114_"></path>
                                <path d="M1.57777426,15.4017307 C1.57777426,15.4017307 1.57777426,15.4345003 1.57777426,15.4345003 C1.57777426,15.4017307 1.57777426,15.4017307 1.57777426,15.4017307 Z" id="XMLID_113_"></path>
                                <path d="M4.54012594,10.6829025 C4.57232542,10.6501329 4.60452489,10.6173633 4.63672437,10.5845936 C4.60452489,10.5845936 4.57232542,10.6173633 4.54012594,10.6829025 Z" id="XMLID_110_"></path>
                                <path d="M3.86393697,11.4038346 C3.89613645,11.371065 3.92833592,11.3055257 3.99273487,11.2727561 C3.9605354,11.3055257 3.92833592,11.371065 3.86393697,11.4038346 Z" id="XMLID_109_"></path>
                                <polygon id="XMLID_108_" points="25.5341835 12.8784684 24.890194 9.79812227"></polygon>
                                <path d="M13.9423726,15.2378825 C13.9423726,15.2378825 13.9101731,15.2378825 13.9101731,15.2378825 C13.9101731,15.2378825 13.9423726,15.2378825 13.9423726,15.2378825 Z" id="XMLID_107_"></path>
                                <path d="M14.1355694,15.2706521 C14.1355694,15.2706521 14.10337,15.2706521 14.10337,15.2706521 C14.10337,15.2706521 14.10337,15.2706521 14.1355694,15.2706521 Z" id="XMLID_106_"></path>
                                <path d="M2.38276113,13.5994005 C2.35056166,13.6649397 2.28616271,13.7632487 2.25396323,13.8287879 C2.31836218,13.7632487 2.35056166,13.6649397 2.38276113,13.5994005 Z" id="XMLID_105_"></path>
                                <path d="M13.7813752,15.2051128 C13.7491757,15.2051128 13.7491757,15.1723432 13.7813752,15.2051128 C13.7491757,15.1723432 13.7491757,15.2051128 13.7813752,15.2051128 Z" id="XMLID_103_"></path>
                                <path d="M13.6203778,15.1395735 C13.5881784,15.1395735 13.5881784,15.1395735 13.6203778,15.1395735 C13.5881784,15.1395735 13.5881784,15.1395735 13.6203778,15.1395735 Z" id="XMLID_102_"></path>
                                <path d="M12.5899946,13.0750862 C12.5899946,13.0750862 12.5899946,13.1078559 12.5899946,13.1078559 C12.5899946,13.1078559 12.5899946,13.1078559 12.5899946,13.0750862 Z" id="XMLID_100_"></path>
                                <path d="M12.6221941,12.911238 C12.6221941,12.911238 12.6221941,12.9440077 12.6221941,12.911238 C12.6221941,12.9440077 12.6221941,12.911238 12.6221941,12.911238 Z" id="XMLID_97_"></path>
                                <path d="M12.6865931,12.7473898 C12.6865931,12.7473898 12.6865931,12.7801595 12.6865931,12.7473898 C12.6865931,12.7801595 12.6865931,12.7473898 12.6865931,12.7473898 Z" id="XMLID_96_"></path>
                                <path d="M14.3287663,7.53701713 C14.3287663,7.50424749 14.3287663,7.50424749 14.3287663,7.53701713 C14.3287663,7.50424749 14.3287663,7.50424749 14.3287663,7.53701713 Z" id="XMLID_88_"></path>
                                <path d="M14.3287663,7.96302244 L14.3287663,7.86471352 C14.3287663,7.83194388 14.3287663,7.79917424 14.3287663,7.79917424 C14.3287663,7.83194388 14.3287663,7.89748316 14.3287663,7.96302244 Z" id="XMLID_87_"></path>
                                <path d="M25.4053856,14.4514111 C25.3731861,14.4841807 25.3731861,14.5169504 25.3409867,14.54972 C25.3731861,14.4841807 25.3731861,14.4841807 25.4053856,14.4514111 Z" id="XMLID_86_"></path>
                                <path d="M12.5577952,13.2717041 C12.5577952,13.2717041 12.5577952,13.3044737 12.5577952,13.3044737 C12.5577952,13.2717041 12.5577952,13.2717041 12.5577952,13.2717041 Z" id="XMLID_85_"></path>
                                <path d="M25.501984,14.2547933 C25.4697846,14.2875629 25.4697846,14.3531022 25.4375851,14.3858718 C25.4697846,14.3531022 25.4697846,14.2875629 25.501984,14.2547933 Z" id="XMLID_83_"></path>
                                <path d="M18.7400943,24.8066172 C18.6756954,24.741078 18.6112964,24.6755387 18.5790969,24.5772298 C18.6434959,24.642769 18.6756954,24.741078 18.7400943,24.8066172 Z" id="XMLID_82_" fill="#525353" fill-rule="nonzero"></path>
                                <path d="M19.1586875,25.2326226 C19.1586875,25.2326226 19.190887,25.2326226 19.1586875,25.2326226 C19.190887,25.2326226 19.1586875,25.2326226 19.1586875,25.2326226 C19.1586875,25.2326226 18.9654906,25.0687744 18.7400943,24.8066172 C18.9976901,25.0687744 19.1586875,25.2326226 19.1586875,25.2326226 Z" id="XMLID_81_" fill="#AA9678" fill-rule="nonzero"></path>
                                <ellipse id="XMLID_80_" fill="#FFFFFF" fill-rule="nonzero" transform="translate(25.427934, 8.485188) rotate(-4.573991) translate(-25.427934, -8.485188) " cx="24.9781424" cy="8.03504579" rx="1" ry="1"></ellipse>
                                <path d="M25.8239788,9.07719019 C25.8239788,9.07719019 25.8239788,9.07719019 25.8239788,9.07719019 C25.6629814,8.84780271 25.501984,8.65118488 25.3409867,8.45456704 C25.3409867,8.45456704 25.3409867,8.45456704 25.3409867,8.45456704 C25.3409867,8.45456704 25.3409867,8.45456704 25.3409867,8.45456704 C25.3409867,8.45456704 25.3409867,8.45456704 25.3409867,8.45456704 C25.2765877,8.35625812 25.1799893,8.29071884 25.1155903,8.22517956 C25.0833909,8.19240992 25.0511914,8.15964028 25.0189919,8.15964028 C24.9867924,8.12687064 24.9223935,8.06133136 24.890194,8.02856172 L24.890194,9.79812227 L25.566383,12.911238 C25.566383,12.9440077 25.566383,12.9440077 25.5985825,12.9767773 L26.0493751,13.5010915 L26.5323672,13.5010915 C26.5323672,13.4683219 26.5323672,13.4027826 26.5323672,13.370013 C26.5323672,11.8953792 26.3069709,10.4862847 25.8561782,9.17549911 C25.8561782,9.14272947 25.8561782,9.10995983 25.8239788,9.07719019 Z" id="XMLID_78_" fill="#BBBCBD" fill-rule="nonzero"></path>
                                <path d="M25.6307819,13.2061648 C25.6307819,13.2061648 25.6307819,13.2061648 25.6307819,13.2061648 C25.6307819,13.2061648 25.6307819,13.2061648 25.6307819,13.2061648 C25.6307819,13.2061648 25.6307819,13.2061648 25.6307819,13.2061648 C25.6307819,13.3044737 25.6629814,13.370013 25.6629814,13.4683219 C25.6629814,13.4683219 25.6629814,13.5010915 25.6629814,13.5010915 C25.6629814,13.5010915 25.6629814,13.5010915 25.6629814,13.5010915 C25.6629814,13.5010915 25.6629814,13.5010915 25.6629814,13.5010915 C25.6629814,13.5010915 25.6629814,13.5338612 25.6629814,13.5338612 C25.6629814,13.5994005 25.6629814,13.6977094 25.6629814,13.7632487 C25.6629814,13.7632487 25.6629814,13.7632487 25.6629814,13.7632487 C25.6629814,13.7632487 25.6629814,13.7632487 25.6629814,13.7632487 C25.6629814,13.7632487 25.6629814,13.7632487 25.6629814,13.7960183 C25.6629814,13.8615576 25.6307819,13.9598665 25.6307819,14.0254058 C25.6307819,14.0254058 25.6307819,14.0254058 25.6307819,14.0254058 C25.6307819,14.0254058 25.6307819,14.0254058 25.6307819,14.0254058 L26.0815746,13.5010915 L25.6307819,12.9767773 C25.6307819,12.9767773 25.6307819,12.9767773 25.6307819,12.9767773 C25.5985825,13.0423166 25.5985825,13.1078559 25.6307819,13.2061648 Z" id="XMLID_76_" fill="#676A6A" fill-rule="nonzero"></path>
                                <path d="M25.6307819,13.7960183 C25.6307819,13.7960183 25.6307819,13.7632487 25.6307819,13.7960183 C25.6307819,13.6977094 25.6629814,13.6321701 25.6629814,13.5338612 C25.6629814,13.5010915 25.6629814,13.5010915 25.6629814,13.4683219 C25.6629814,13.4683219 25.6629814,13.4355523 25.6629814,13.4355523 C25.6629814,13.370013 25.6629814,13.2717041 25.6629814,13.2061648 C25.6629814,13.2061648 25.6629814,13.2061648 25.6629814,13.1733952 C25.6629814,13.1078559 25.6307819,13.009547 25.6307819,12.9440077 C25.6307819,12.911238 25.6307819,12.911238 25.5985825,12.8784684 C25.566383,12.7146202 25.501984,12.5835416 25.4375851,12.4852327 C25.4375851,12.4852327 25.4053856,12.4524631 25.4053856,12.4524631 C25.3731861,12.4196934 25.3731861,12.3869238 25.3409867,12.3869238 C25.3087872,12.3541542 25.2765877,12.3213845 25.2443882,12.2886149 C25.2443882,12.2886149 25.2121888,12.2558452 25.2121888,12.2558452 C25.1799893,12.2230756 25.1477898,12.2230756 25.1155903,12.2230756 C25.1155903,12.2230756 25.0833909,12.2230756 25.0833909,12.2230756 C25.0511914,12.2230756 24.9867924,12.190306 24.954593,12.190306 C24.9223935,12.190306 24.8579945,12.190306 24.8257951,12.2230756 C24.8257951,12.2230756 24.7935956,12.2230756 24.7935956,12.2230756 C24.7613961,12.2230756 24.7291966,12.2558452 24.6969972,12.2558452 C24.6969972,12.2558452 24.6647977,12.2558452 24.6647977,12.2886149 C24.6325982,12.3213845 24.6003987,12.3541542 24.5681993,12.3869238 C24.5359998,12.4196934 24.5359998,12.4524631 24.5038003,12.4524631 C24.5038003,12.4524631 24.4716008,12.4852327 24.4716008,12.4852327 C24.4072019,12.5835416 24.3428029,12.7146202 24.3106035,12.8784684 C24.3106035,12.8784684 24.3106035,12.8784684 24.3106035,12.911238 C24.278404,12.9767773 24.278404,13.0423166 24.278404,13.1406255 C24.278404,13.1733952 24.278404,13.1733952 24.278404,13.2061648 C24.278404,13.3044737 24.2462045,13.370013 24.2462045,13.4683219 C24.2462045,13.4683219 24.2462045,13.5010915 24.2462045,13.5010915 C24.2462045,14.2220236 24.5681993,14.8118771 24.9867924,14.8118771 C25.0511914,14.8118771 25.1155903,14.7791075 25.1799893,14.7463379 C25.1799893,14.7463379 25.2121888,14.7463379 25.2121888,14.7135682 C25.2443882,14.7135682 25.2765877,14.6807986 25.2765877,14.6480289 C25.2765877,14.6480289 25.3087872,14.6152593 25.3087872,14.6152593 C25.3409867,14.5824897 25.3731861,14.54972 25.4053856,14.5169504 C25.4375851,14.4841807 25.4375851,14.4514111 25.4697846,14.4186415 C25.4697846,14.3858718 25.501984,14.3858718 25.501984,14.3531022 C25.5341835,14.3203325 25.5341835,14.2875629 25.566383,14.2220236 C25.566383,14.2220236 25.566383,14.189254 25.5985825,14.189254 C25.6307819,14.1237147 25.6307819,14.0581754 25.6629814,13.9926361 C25.5985825,13.9270969 25.5985825,13.8615576 25.6307819,13.7960183 Z M24.9223935,13.3044737 C24.7613961,13.3044737 24.6325982,13.0750862 24.6325982,12.8129291 C24.6325982,12.550772 24.7613961,12.3213845 24.9223935,12.3213845 C25.0833909,12.3213845 25.2121888,12.550772 25.2121888,12.8129291 C25.1799893,13.1078559 25.0511914,13.3044737 24.9223935,13.3044737 Z" id="XMLID_219_" fill="#000000" fill-rule="nonzero"></path>
                                <ellipse id="XMLID_73_" fill="#FFFFFF" fill-rule="nonzero" cx="24.9223935" cy="12.8129291" rx="1" ry="1"></ellipse>
                                <path d="M24.214005,12.8784684 C24.2462045,12.7146202 24.3106035,12.5835416 24.3750024,12.4852327 C24.3750024,12.4852327 24.4072019,12.4524631 24.4072019,12.4524631 C24.4394014,12.4196934 24.4394014,12.3869238 24.4716008,12.3869238 C24.5038003,12.3541542 24.5359998,12.3213845 24.5681993,12.2886149 C24.5681993,12.2886149 24.6003987,12.2558452 24.6003987,12.2558452 C24.6325982,12.2230756 24.6647977,12.2230756 24.6969972,12.2230756 C24.6969972,12.2230756 24.7291966,12.2230756 24.7291966,12.2230756 C24.7613961,12.2230756 24.8257951,12.190306 24.8579945,12.190306 C24.890194,12.190306 24.954593,12.190306 24.9867924,12.2230756 C24.9867924,12.2230756 25.0189919,12.2230756 25.0189919,12.2230756 C25.0511914,12.2230756 25.0833909,12.2558452 25.1155903,12.2558452 C25.1155903,12.2558452 25.1477898,12.2558452 25.1477898,12.2886149 C25.1799893,12.3213845 25.2121888,12.3541542 25.2443882,12.3869238 C25.2765877,12.4196934 25.2765877,12.4524631 25.3087872,12.4524631 C25.3087872,12.4524631 25.3409867,12.4852327 25.3409867,12.4852327 C25.4053856,12.5835416 25.4697846,12.7146202 25.501984,12.8784684 L24.8257951,9.76535263 L24.214005,12.8784684 Z" id="XMLID_72_" fill="#909393" fill-rule="nonzero"></path>
                                <path d="M16.0675379,13.4683219 C16.0675379,13.4027826 16.0675379,13.3372434 16.0675379,13.2717041 C16.0675379,13.2717041 16.0675379,13.2717041 16.0675379,13.2717041 C16.0675379,13.2061648 16.0353384,13.1406255 16.0353384,13.1078559 C16.0353384,13.1078559 16.0353384,13.1078559 16.0353384,13.1078559 C16.0353384,13.0423166 16.003139,13.009547 16.003139,12.9440077 C16.003139,12.9440077 16.003139,12.9440077 16.003139,12.9440077 C15.9709395,12.8784684 15.9709395,12.8456988 15.93874,12.7801595 C15.93874,12.7801595 15.93874,12.7801595 15.93874,12.7801595 C15.9065405,12.7146202 15.8743411,12.6818506 15.8743411,12.6163113 C15.7777426,12.4524631 15.6811442,12.3213845 15.5523463,12.190306 C15.3913489,12.0264578 15.1981521,11.9281488 15.0049552,11.8298399 C15.0049552,11.8298399 15.0049552,11.8298399 15.0049552,11.8298399 C14.9083568,11.7970703 14.8117584,11.7643006 14.6829605,11.731531 C14.6829605,11.731531 14.6829605,11.731531 14.6829605,11.731531 C14.5863621,11.6987614 14.4575642,11.6987614 14.3609658,11.6987614 C14.2321679,11.6987614 14.1355694,11.6987614 14.038971,11.731531 C14.038971,11.731531 14.038971,11.731531 14.038971,11.731531 C13.9423726,11.7643006 13.8135747,11.7970703 13.7169763,11.8298399 C13.7169763,11.8298399 13.7169763,11.8298399 13.7169763,11.8298399 C13.6203778,11.8626096 13.5237794,11.9281488 13.427181,11.9936881 C13.427181,11.9936881 13.427181,11.9936881 13.427181,11.9936881 C13.3305826,12.0592274 13.2661836,12.1247667 13.1695852,12.190306 C13.0407873,12.3213845 12.9441889,12.4524631 12.8475904,12.6163113 C12.8475904,12.6163113 12.8475904,12.6163113 12.8475904,12.6163113 C12.815391,12.6490809 12.7831915,12.7146202 12.7831915,12.7473898 C12.7831915,12.7473898 12.7831915,12.7473898 12.7831915,12.7473898 C12.750992,12.7801595 12.750992,12.8456988 12.7187925,12.8784684 C12.7187925,12.8784684 12.7187925,12.911238 12.7187925,12.911238 C12.7187925,12.9440077 12.6865931,13.009547 12.6865931,13.0423166 C12.6865931,13.0423166 12.6865931,13.0750862 12.6865931,13.0750862 C12.6865931,13.1078559 12.6865931,13.1733952 12.6543936,13.2061648 C12.6543936,13.2061648 12.6543936,13.2389344 12.6543936,13.2389344 C12.6543936,13.3044737 12.6543936,13.370013 12.6543936,13.4355523 C12.6543936,13.5666308 12.6543936,13.6649397 12.6865931,13.7960183 C12.6865931,13.7960183 12.6865931,13.7960183 12.6865931,13.7960183 C12.7187925,13.8943272 12.750992,14.0254058 12.7831915,14.1237147 C12.7831915,14.1237147 12.7831915,14.1237147 12.7831915,14.1237147 C12.8797899,14.3203325 12.9763883,14.5169504 13.1373857,14.6807986 C13.2661836,14.8118771 13.3949815,14.9101861 13.5559789,15.008495 C13.5559789,15.008495 13.5559789,15.008495 13.5559789,15.008495 C13.5881784,15.0412646 13.6525773,15.0740343 13.7169763,15.0740343 C13.7169763,15.0740343 13.7169763,15.0740343 13.7169763,15.0740343 C13.7491757,15.1068039 13.8135747,15.1068039 13.8457742,15.1395735 C13.8457742,15.1395735 13.8457742,15.1395735 13.8779736,15.1395735 C13.9101731,15.1395735 13.9745721,15.1723432 14.0067715,15.1723432 C14.0067715,15.1723432 14.038971,15.1723432 14.038971,15.1723432 C14.0711705,15.1723432 14.1355694,15.1723432 14.1677689,15.2051128 C14.1677689,15.2051128 14.1999684,15.2051128 14.1999684,15.2051128 C14.2643673,15.2051128 14.3287663,15.2051128 14.3931652,15.2051128 C14.650761,15.2051128 14.8761573,15.1395735 15.0693542,15.0740343 C15.1659526,15.0412646 15.262551,14.9757253 15.3591495,14.9101861 C15.5523463,14.7791075 15.7133437,14.6152593 15.8421416,14.4186415 C15.9065405,14.3203325 15.9709395,14.2220236 16.003139,14.1237147 C16.003139,13.9598665 16.0675379,13.730479 16.0675379,13.4683219 C16.0675379,13.4683219 16.0675379,13.4683219 16.0675379,13.4683219 C16.0675379,13.4683219 16.0675379,13.4683219 16.0675379,13.4683219 Z M14.2965668,13.2389344 C13.9423726,13.2389344 13.6203778,12.9440077 13.6203778,12.550772 C13.6203778,12.190306 13.9101731,11.8626096 14.2965668,11.8626096 C14.650761,11.8626096 14.9727558,12.1575363 14.9727558,12.550772 C14.9727558,12.9440077 14.6829605,13.2389344 14.2965668,13.2389344 Z" id="XMLID_214_" fill="#000000" fill-rule="nonzero"></path>
                                <ellipse id="XMLID_69_" fill="#FFFFFF" fill-rule="nonzero" cx="14.2965668" cy="12.5835416" rx="1" ry="1"></ellipse>
                                <path d="M13.1051862,12.190306 L14.3287663,8.4217974 C14.3287663,8.4217974 14.3287663,8.19240992 14.3287663,7.96302244 C14.3287663,7.89748316 14.3287663,7.83194388 14.3287663,7.76640461 C14.3287663,7.73363497 14.3287663,7.73363497 14.3287663,7.70086533 C14.3287663,7.66809569 14.3287663,7.63532605 14.3287663,7.63532605 C14.3287663,7.60255641 14.3287663,7.60255641 14.3287663,7.60255641 C14.3287663,7.56978677 14.3287663,7.56978677 14.3287663,7.56978677 C14.3287663,7.56978677 14.3287663,7.53701713 14.3287663,7.53701713 C14.3287663,7.53701713 14.3287663,7.53701713 14.3287663,7.53701713 C13.6525773,7.40593857 12.9441889,7.30762965 12.2358004,7.30762965 C12.0104041,7.30762965 11.7528083,7.30762965 11.527412,7.34039929 C11.4952125,7.34039929 11.463013,7.34039929 11.4308135,7.34039929 C10.2072335,7.43870821 9.01585294,7.76640461 7.88887132,8.2579492 C6.92288708,8.68395452 6.05350126,9.27380803 5.24851439,9.96197046 C5.24851439,9.96197046 5.24851439,9.96197046 5.24851439,9.96197046 C5.02311807,10.1585883 4.82992122,10.3552061 4.63672437,10.551824 C4.60452489,10.5845936 4.57232542,10.6173633 4.54012594,10.6501329 C4.3469291,10.8467507 4.18593172,11.0433686 3.99273487,11.2399864 C3.9605354,11.2727561 3.92833592,11.3382953 3.86393697,11.371065 C3.7029396,11.5676828 3.50974275,11.7970703 3.34874538,12.0264578 C3.34874538,12.0592274 3.3165459,12.0592274 3.3165459,12.091997 C3.15554853,12.3213845 3.02675063,12.5180024 2.86575326,12.7473898 C2.83355378,12.7801595 2.80135431,12.8456988 2.76915483,12.8784684 C2.64035693,13.0750862 2.54375851,13.2717041 2.44716008,13.4355523 L7.95327027,13.4355523 L13.1051862,12.190306 Z" id="XMLID_68_" fill="#BBBCBD" fill-rule="nonzero"></path>
                                <path d="M17.7419106,11.7643006 C17.7419106,11.6332221 17.7741101,11.4693739 17.7741101,11.3382953 C17.7741101,11.1416775 17.8063096,10.9450597 17.8063096,10.7484418 C17.8063096,10.5845936 17.8063096,10.4535151 17.8063096,10.2896669 C17.8063096,10.2568972 17.8063096,10.1913579 17.8063096,10.1585883 C17.8063096,9.76535263 17.7741101,9.37211695 17.7741101,8.94611163 C17.7741101,8.94611163 17.7741101,8.94611163 17.7741101,8.94611163 C17.7741101,8.94611163 17.7741101,8.94611163 17.7741101,8.94611163 C17.7741101,8.94611163 17.7741101,8.94611163 17.7741101,8.94611163 C17.7741101,8.94611163 17.7741101,8.94611163 17.7419106,8.94611163 C17.6775117,8.91334199 17.4843148,8.81503307 17.3233174,8.71672416 C17.3233174,8.71672416 17.3233174,8.71672416 17.3233174,8.71672416 C17.291118,8.68395452 17.2589185,8.68395452 17.1945195,8.65118488 C17.1945195,8.65118488 17.1945195,8.65118488 17.1945195,8.65118488 C17.1623201,8.61841524 17.1301206,8.61841524 17.1301206,8.61841524 C17.1301206,8.61841524 17.1301206,8.61841524 17.1301206,8.61841524 C17.0979211,8.61841524 17.0979211,8.5856456 17.0657216,8.5856456 C16.8081258,8.45456704 16.55053,8.32348848 16.2929342,8.22517956 C15.6489447,7.96302244 14.8117584,7.73363497 14.3287663,7.60255641 L14.3287663,7.9302528 L14.3287663,7.99579208 L14.3287663,8.02856172 C14.3287663,8.2579492 14.3287663,8.48733668 14.3287663,8.48733668 L15.5201468,12.2558452 C15.6489447,12.3869238 15.7455432,12.5180024 15.8421416,12.6818506 C15.8743411,12.7473898 15.9065405,12.7801595 15.9065405,12.8456988 C15.9065405,12.8456988 15.9065405,12.8456988 15.9065405,12.8456988 C15.93874,12.911238 15.93874,12.9440077 15.9709395,13.009547 C15.9709395,13.009547 15.9709395,13.009547 15.9709395,13.009547 C16.003139,13.0750862 16.003139,13.1078559 16.003139,13.1733952 C16.003139,13.1733952 16.003139,13.1733952 16.003139,13.1733952 C16.003139,13.2389344 16.0353384,13.3044737 16.0353384,13.3372434 C16.0353384,13.3372434 16.0353384,13.3372434 16.0353384,13.3372434 C16.0353384,13.4027826 16.0353384,13.4683219 16.0353384,13.5338612 L17.5165143,13.5338612 C17.6131127,12.9767773 17.6775117,12.4196934 17.7419106,11.8626096 C17.7419106,11.7970703 17.7419106,11.7643006 17.7419106,11.7643006 Z" id="XMLID_67_" fill="#E2DDDB" fill-rule="nonzero"></path>
                                <path d="M16.0675379,18.8425428 C16.3895327,18.5148464 16.7115274,18.18715 17.0335222,17.8594536 C17.226719,17.6628358 17.3877164,17.4989876 17.5487138,17.3023698 C18.7722938,15.9588145 19.6738791,14.6807986 20.2212702,13.0423166 C20.2212702,13.009547 20.2534696,12.9440077 20.2534696,12.8784684 C20.2534696,12.8784684 20.2534696,12.8456988 20.2534696,12.8456988 C20.2534696,12.7801595 20.2856691,12.7146202 20.2856691,12.6490809 C20.2856691,12.5835416 20.2856691,12.550772 20.2856691,12.4852327 C20.1568712,11.7643006 19.8992754,11.0761382 19.6416796,10.3879758 C19.6416796,10.3879758 19.6416796,10.3879758 19.6416796,10.3879758 C19.6416796,10.3879758 19.6416796,10.3879758 19.6416796,10.3879758 C19.6094801,10.3552061 19.5450812,10.2896669 19.5128817,10.2568972 C19.3840838,10.1258187 19.2230864,9.9947401 19.0942885,9.86366154 C18.6756954,9.50319551 18.2249027,9.14272947 17.7419106,8.84780271 C17.7741101,9.24103839 17.7741101,9.63427407 17.7741101,10.0602794 C17.7741101,10.093049 17.7741101,10.1585883 17.7741101,10.1913579 C17.7741101,10.3552061 17.7741101,10.4862847 17.7741101,10.6501329 C17.7741101,10.8467507 17.7741101,11.0433686 17.7419106,11.2399864 C17.7419106,11.371065 17.7097111,11.5349132 17.7097111,11.6659917 C17.7097111,11.6659917 17.7097111,11.6987614 17.7097111,11.6987614 C17.6775117,12.2558452 17.5809132,12.8129291 17.4843148,13.370013 L17.3233174,14.189254 C16.9691232,15.6638878 16.2285353,17.0402126 15.6167453,18.4165375 C15.4557479,18.7770035 15.2947505,19.1702392 15.1659526,19.5307053 C15.1659526,19.5634749 15.1337531,19.5962445 15.1337531,19.6290142 C15.32695,19.4323963 15.4879474,19.2685481 15.6167453,19.1374696 C15.8099421,19.1374696 15.93874,19.006391 16.0675379,18.8425428 Z" id="XMLID_65_" fill="#FBB040" fill-rule="nonzero"></path>
                                <path d="M13.1051862,12.190306 C13.1695852,12.1247667 13.2661836,12.0592274 13.362782,11.9936881 C13.362782,11.9936881 13.362782,11.9936881 13.362782,11.9936881 C13.4593805,11.9281488 13.5559789,11.8953792 13.6525773,11.8298399 C13.6525773,11.8298399 13.6525773,11.8298399 13.6525773,11.8298399 C13.7491757,11.7970703 13.8457742,11.7643006 13.9745721,11.731531 C13.9745721,11.731531 13.9745721,11.731531 13.9745721,11.731531 C14.0711705,11.6987614 14.1999684,11.6987614 14.2965668,11.6987614 C14.4253647,11.6987614 14.5219631,11.6987614 14.6185616,11.731531 C14.6185616,11.731531 14.6185616,11.731531 14.6185616,11.731531 C14.71516,11.7643006 14.8439579,11.7970703 14.9405563,11.8298399 C14.9405563,11.8298399 14.9405563,11.8298399 14.9405563,11.8298399 C15.1337531,11.9281488 15.32695,12.0264578 15.4879474,12.190306 L14.2965668,8.4217974 L13.1051862,12.190306 Z" id="XMLID_64_" fill="#909393" fill-rule="nonzero"></path>
                                <path d="M12.6865931,14.1564843 C12.6543936,14.0581754 12.6221941,13.9598665 12.5899946,13.8287879 C12.5899946,13.8287879 12.5899946,13.8287879 12.5899946,13.8287879 C12.5577952,13.730479 12.5577952,13.5994005 12.5577952,13.4683219 C12.5577952,13.4027826 12.5577952,13.3372434 12.5577952,13.2717041 C12.5577952,13.2717041 12.5577952,13.2389344 12.5577952,13.2389344 C12.5577952,13.2061648 12.5577952,13.1406255 12.5899946,13.1078559 C12.5899946,13.1078559 12.5899946,13.0750862 12.5899946,13.0750862 C12.5899946,13.0423166 12.6221941,12.9767773 12.6221941,12.9440077 C12.6221941,12.9440077 12.6221941,12.911238 12.6221941,12.911238 C12.6221941,12.8784684 12.6543936,12.8129291 12.6865931,12.7801595 C12.6865931,12.7801595 12.6865931,12.7801595 12.6865931,12.7801595 C12.7187925,12.7146202 12.7187925,12.6818506 12.750992,12.6490809 C12.750992,12.6490809 12.750992,12.6490809 12.750992,12.6490809 C12.8475904,12.4852327 12.9441889,12.3541542 13.0729868,12.2230756 L7.98546975,13.5010915 L13.0407873,14.7463379 C12.8797899,14.54972 12.750992,14.3858718 12.6865931,14.1564843 C12.6865931,14.1564843 12.6865931,14.1564843 12.6865931,14.1564843 Z" id="XMLID_63_" fill="#676A6A" fill-rule="nonzero"></path>
                                <path d="M24.1496061,13.2061648 C24.1496061,13.1733952 24.1496061,13.1733952 24.1496061,13.1406255 C24.1496061,13.0750862 24.1818056,13.009547 24.1818056,12.911238 C24.1818056,12.911238 24.1818056,12.8784684 24.1818056,12.8784684 L24.8579945,9.76535263 L24.8579945,7.99579208 C24.3106035,7.53701713 23.7310129,7.27486001 23.1192229,7.27486001 C22.3464355,7.27486001 21.6380471,7.70086533 21.090656,8.22517956 C20.5110654,8.81503307 20.0602728,9.53596515 19.6738791,10.2896669 C19.6416796,10.3224365 19.6416796,10.3552061 19.6094801,10.3879758 C19.7060786,10.4862847 19.8348765,10.5845936 19.9314749,10.6829025 C20.1890707,10.91229 20.414467,11.1416775 20.6720628,11.4038346 C20.7686612,11.5021435 20.8974591,11.6332221 20.9940576,11.731531 C21.1228555,11.8626096 21.2194539,11.9609185 21.3482518,12.091997 C21.5092492,12.2558452 21.6380471,12.4196934 21.7990444,12.5835416 C21.8634434,12.6490809 21.9278423,12.7146202 21.9922413,12.7801595 C22.1532386,12.9767773 22.3464355,13.1733952 22.5074329,13.370013 C22.5396323,13.4027826 22.5718318,13.4355523 22.5718318,13.4355523 L24.0852071,13.4355523 C24.0852071,13.4355523 24.0852071,13.4027826 24.0852071,13.4027826 C24.1496061,13.370013 24.1496061,13.2717041 24.1496061,13.2061648 Z" id="XMLID_62_" fill="#E2DDDB" fill-rule="nonzero"></path>
                                <path d="M19.6738791,10.4207454 C19.6738791,10.4207454 19.6738791,10.4207454 19.6738791,10.4207454 C19.6738791,10.4207454 19.6738791,10.4207454 19.6738791,10.4207454 C19.6738791,10.4207454 19.6738791,10.4535151 19.6738791,10.4207454 C19.6738791,10.4207454 19.6738791,10.4207454 19.6738791,10.4207454 Z" id="XMLID_61_" fill="#E2DDDB" fill-rule="nonzero"></path>
                                <path d="M1.54557479,15.4345003 C1.54557479,15.4345003 1.54557479,15.4017307 1.54557479,15.4017307 C1.64217321,15.1395735 1.73877164,14.8774164 1.86756954,14.6480289 C1.89976901,14.5824897 1.93196849,14.5169504 1.96416796,14.4514111 C2.06076639,14.2547933 2.15736481,14.0581754 2.25396323,13.8615576 C2.28616271,13.7960183 2.31836218,13.6977094 2.38276113,13.6321701 C2.41496061,13.5994005 2.44716008,13.5338612 2.44716008,13.5010915 C2.54375851,13.3044737 2.67255641,13.1078559 2.76915483,12.9440077 C2.80135431,12.911238 2.83355378,12.8456988 2.86575326,12.8129291 C2.99455115,12.5835416 3.15554853,12.3541542 3.3165459,12.1575363 C3.3165459,12.1247667 3.34874538,12.1247667 3.34874538,12.091997 C3.50974275,11.8626096 3.67074012,11.6659917 3.86393697,11.4366042 C3.89613645,11.4038346 3.92833592,11.3382953 3.99273487,11.3055257 C4.15373225,11.1089079 4.3469291,10.91229 4.54012594,10.7156722 C4.57232542,10.6829025 4.60452489,10.6501329 4.63672437,10.6173633 C4.82992122,10.4207454 5.05531754,10.2241276 5.24851439,10.0275097 C5.24851439,10.0275097 5.24851439,10.0275097 5.24851439,10.0275097 C6.08570073,7.17655109 8.66165872,5.07929415 11.6884093,5.07929415 C12.9119894,5.07929415 14.1355694,5.43976019 15.1659526,6.09515298 C16.2285353,6.75054577 17.0979211,7.73363497 17.6775117,8.88057235 C17.6775117,8.88057235 17.6775117,8.88057235 17.6775117,8.91334199 C17.6775117,8.94611163 17.7097111,8.97888127 17.7097111,9.01165091 C17.7097111,9.01165091 17.7097111,9.01165091 17.7097111,9.01165091 C17.7097111,9.01165091 17.7097111,9.01165091 17.7097111,9.01165091 C18.1927033,9.30657767 18.6434959,9.63427407 19.0620891,10.0275097 C19.190887,10.1585883 19.3518843,10.2896669 19.4806822,10.4207454 C19.5128817,10.4535151 19.5772807,10.5190543 19.6094801,10.551824 C19.6094801,10.551824 19.6094801,10.551824 19.6094801,10.551824 C19.6094801,10.551824 19.6094801,10.551824 19.6094801,10.551824 C19.6094801,10.5190543 19.6416796,10.4862847 19.6416796,10.4535151 C20.0602728,7.70086533 21.2516534,5.73468694 22.6684302,5.73468694 C23.7310129,5.73468694 24.6647977,6.84885469 25.2443882,8.5856456 L25.2443882,8.61841524 C25.2443882,8.61841524 25.2443882,8.61841524 25.2443882,8.61841524 C25.4053856,8.81503307 25.566383,9.01165091 25.7273803,9.20826875 C25.7273803,9.20826875 25.7273803,9.20826875 25.7273803,9.20826875 C25.7273803,9.24103839 25.7273803,9.27380803 25.7595798,9.27380803 L25.7273803,9.17549911 C23.9886087,3.89958712 19.0620891,0.0983089191 13.2983831,0.0983089191 C6.05350126,0.0983089191 0.193196849,6.06238334 0.193196849,13.4355523 C0.193196849,14.8774164 0.418593172,16.2865109 0.837186344,17.5972965 C0.837186344,17.5972965 0.837186344,17.5972965 0.837186344,17.5972965 C0.933784769,17.2040608 1.03038319,16.8108252 1.12698162,16.4175895 C1.35237794,16.0243538 1.44897637,15.729427 1.54557479,15.4345003 Z" id="XMLID_60_" fill="#525353" fill-rule="nonzero"></path>
                                <path d="M26.0493751,13.5010915 L25.5985825,14.0254058 C25.5985825,14.0254058 25.5985825,14.0254058 25.5985825,14.0254058 C25.566383,14.0909451 25.566383,14.1564843 25.5341835,14.2220236 C25.5341835,14.2220236 25.5341835,14.2547933 25.501984,14.2547933 C25.4697846,14.2875629 25.4697846,14.3531022 25.4375851,14.3858718 C25.4375851,14.4186415 25.4053856,14.4186415 25.4053856,14.4514111 C25.3731861,14.4841807 25.3731861,14.5169504 25.3409867,14.54972 C25.3087872,14.5824897 25.2765877,14.6152593 25.2443882,14.6480289 C25.2443882,14.6480289 25.2121888,14.6807986 25.2121888,14.6807986 C25.1799893,14.7135682 25.1477898,14.7135682 25.1477898,14.7463379 C25.1477898,14.7463379 25.1155903,14.7463379 25.1155903,14.7791075 C25.0511914,14.8118771 24.9867924,14.8446468 24.9223935,14.8446468 C24.5038003,14.8446468 24.1818056,14.2547933 24.1818056,13.5338612 L22.6684302,13.5338612 C22.6684302,13.5338612 22.6684302,13.5338612 22.6684302,13.5338612 C22.9582255,13.8615576 23.2158213,14.189254 23.5056166,14.54972 C23.5056166,14.54972 23.5056166,14.54972 23.5056166,14.54972 C23.7632124,14.8774164 24.0208082,15.2051128 24.278404,15.5328092 C24.278404,15.5328092 24.3106035,15.5655788 24.3106035,15.5655788 C24.5681993,15.8932752 24.7935956,16.188202 25.0511914,16.5158984 C25.0833909,16.548668 25.0833909,16.5814377 25.1155903,16.6142073 C25.3731861,16.9419037 25.6307819,17.3023698 25.8561782,17.6300661 C25.8561782,17.6300661 25.8561782,17.6300661 25.8561782,17.6300661 C26.2747714,16.3192806 26.5323672,14.9429557 26.5323672,13.5010915 L26.0493751,13.5010915 Z" id="XMLID_59_" fill="#FFFFFF" fill-rule="nonzero"></path>
                                <path d="M11.4308135,7.34039929 C11.463013,7.34039929 11.4952125,7.34039929 11.527412,7.34039929 C11.7528083,7.34039929 12.0104041,7.30762965 12.2358004,7.30762965 C12.9441889,7.30762965 13.6525773,7.37316893 14.3287663,7.53701713 C14.3287663,7.53701713 14.3287663,7.53701713 14.3287663,7.53701713 C14.3287663,7.53701713 14.3287663,7.53701713 14.3287663,7.56978677 C14.3287663,7.56978677 14.3287663,7.60255641 14.3287663,7.60255641 C14.3287663,7.60255641 14.3287663,7.63532605 14.3287663,7.63532605 C14.3287663,7.66809569 14.3287663,7.70086533 14.3287663,7.70086533 C14.3287663,7.73363497 14.3287663,7.73363497 14.3287663,7.76640461 C14.3287663,7.79917424 14.3287663,7.83194388 14.3287663,7.83194388 L14.3287663,7.50424749 C14.8117584,7.60255641 15.6489447,7.86471352 16.2929342,8.12687064 C16.55053,8.22517956 16.8081258,8.35625812 17.0657216,8.48733668 C17.0657216,8.48733668 17.0979211,8.52010632 17.1301206,8.52010632 C17.1301206,8.52010632 17.1301206,8.52010632 17.1301206,8.52010632 C17.1623201,8.52010632 17.1945195,8.55287596 17.1945195,8.55287596 C17.1945195,8.55287596 17.1945195,8.55287596 17.1945195,8.55287596 C17.226719,8.5856456 17.2589185,8.5856456 17.3233174,8.61841524 C17.3233174,8.61841524 17.3233174,8.61841524 17.3233174,8.61841524 C17.4843148,8.71672416 17.6775117,8.81503307 17.7419106,8.84780271 C17.7419106,8.84780271 17.7419106,8.84780271 17.7741101,8.84780271 C17.7741101,8.84780271 17.7741101,8.84780271 17.7741101,8.84780271 C17.7741101,8.81503307 17.7419106,8.78226344 17.7419106,8.7494938 C17.7419106,8.7494938 17.7419106,8.7494938 17.7419106,8.71672416 C17.1623201,7.56978677 16.2929342,6.61946722 15.2303516,5.93130478 C14.1999684,5.27591199 12.9763883,4.91544595 11.7528083,4.91544595 C8.72605767,4.91544595 6.15009968,7.01270289 5.31291334,9.86366154 C6.11790021,9.17549911 6.98728603,8.5856456 7.95327027,8.15964028 C9.01585294,7.73363497 10.2072335,7.40593857 11.4308135,7.34039929 Z" id="XMLID_58_" fill="#000000" fill-rule="nonzero"></path>
                                <path d="M21.1228555,8.2579492 C21.6702465,7.73363497 22.378635,7.30762965 23.1514224,7.30762965 C23.7632124,7.30762965 24.3428029,7.56978677 24.890194,8.02856172 C24.890194,8.02856172 24.890194,8.02856172 24.890194,8.02856172 C24.954593,8.06133136 24.9867924,8.12687064 25.0189919,8.15964028 C25.0511914,8.19240992 25.0833909,8.22517956 25.1155903,8.22517956 C25.1799893,8.29071884 25.2765877,8.38902776 25.3409867,8.45456704 C25.3409867,8.45456704 25.3409867,8.45456704 25.3409867,8.45456704 C25.3409867,8.45456704 25.3409867,8.45456704 25.3409867,8.45456704 L25.3409867,8.4217974 C24.7613961,6.6850065 23.8276113,5.57083875 22.7650287,5.57083875 C21.3482518,5.57083875 20.1568712,7.53701713 19.738278,10.2896669 C20.0924723,9.56873479 20.5432649,8.84780271 21.1228555,8.2579492 Z" id="XMLID_56_" fill="#000000" fill-rule="nonzero"></path>
                                <path d="M8.72605767,25.7897064 C8.85485556,25.8224761 8.95145399,25.8880154 9.08025189,25.920785 C10.4326298,26.4123296 11.8816062,26.6744867 13.3949815,26.6744867 C15.1337531,26.6744867 16.7759264,26.3140207 18.2893017,25.7241672 C18.3537006,25.6913975 18.450299,25.6586279 18.514698,25.6258582 C18.6434959,25.560319 18.7722938,25.5275493 18.9010917,25.46201 C19.0298896,25.3964708 19.126488,25.3637011 19.2230864,25.2981618 C19.190887,25.2981618 19.1586875,25.2981618 19.126488,25.2981618 C18.6434959,25.3637011 18.1927033,25.3637011 17.7419106,25.2981618 C15.0371547,24.9049262 14.4575642,23.5941406 14.5219631,22.2178157 C14.3287663,22.1195068 14.1355694,21.9884282 13.9423726,21.82458 C11.8816062,20.284407 10.6258267,18.645925 10.6258267,18.645925 C10.6258267,18.645925 12.2358004,19.8911713 14.6185616,20.8414908 C14.6829605,20.8742605 14.71516,20.8742605 14.7795589,20.9070301 C14.8761573,20.5137944 15.0371547,20.1533284 15.1337531,19.825632 C15.1337531,19.7928624 15.1659526,19.7600927 15.1659526,19.7273231 C15.2947505,19.3340874 15.4557479,18.9736214 15.6167453,18.6131553 C16.2285353,17.2040608 16.9691232,15.8605056 17.3233174,14.3858718 L17.4843148,13.5666308 L16.003139,13.5666308 C16.003139,13.5666308 16.003139,13.5666308 16.003139,13.5666308 C16.003139,13.5666308 16.003139,13.5666308 16.003139,13.5666308 C16.003139,13.8287879 15.93874,14.0581754 15.8743411,14.2547933 C15.8421416,14.3531022 15.7777426,14.4514111 15.7133437,14.54972 C15.5845458,14.7463379 15.4235484,14.9101861 15.2303516,15.0412646 C15.1337531,15.1068039 15.0371547,15.1723432 14.9405563,15.2051128 C14.71516,15.3034217 14.4897637,15.3361914 14.2643673,15.3361914 C14.1999684,15.3361914 14.1355694,15.3361914 14.0711705,15.3361914 C14.0711705,15.3361914 14.038971,15.3361914 14.038971,15.3361914 C14.0067715,15.3361914 13.9423726,15.3361914 13.9101731,15.3034217 C13.9101731,15.3034217 13.8779736,15.3034217 13.8779736,15.3034217 C13.8457742,15.3034217 13.7813752,15.2706521 13.7491757,15.2706521 C13.7491757,15.2706521 13.7491757,15.2706521 13.7169763,15.2706521 C13.6847768,15.2378825 13.6203778,15.2378825 13.5881784,15.2051128 C13.5881784,15.2051128 13.5881784,15.2051128 13.5881784,15.2051128 C13.5237794,15.1723432 13.4915799,15.1723432 13.427181,15.1395735 C13.427181,15.1395735 13.427181,15.1395735 13.427181,15.1395735 C13.2661836,15.0412646 13.1373857,14.9429557 13.0085878,14.8118771 L7.95327027,13.5666308 L2.47935956,13.5666308 C2.44716008,13.5994005 2.41496061,13.6649397 2.41496061,13.6977094 C2.38276113,13.7632487 2.31836218,13.8615576 2.28616271,13.9270969 C2.18956429,14.1237147 2.09296586,14.3203325 1.99636744,14.5169504 C1.96416796,14.5824897 1.93196849,14.6480289 1.89976901,14.7135682 C1.80317059,14.9757253 1.67437269,15.2051128 1.57777426,15.4672699 C1.57777426,15.4672699 1.57777426,15.5000396 1.57777426,15.5000396 C1.48117584,15.7949663 1.35237794,16.0898931 1.28797899,16.3848198 C1.15918109,16.7780555 1.06258267,17.1712912 0.998183718,17.5645269 C1.86756954,20.2516373 3.54194223,22.5782817 5.76370599,24.2167637 C5.82810494,24.2495334 5.89250388,24.3150726 5.95690283,24.3478423 C6.34329653,24.6099994 6.72969023,24.8721565 7.11608393,25.101544 C7.59907605,25.2981618 8.14646712,25.560319 8.72605767,25.7897064 Z" id="XMLID_55_" fill="#FFFFFF" fill-rule="nonzero"></path>
                                <path d="M17.7741101,21.6279622 C17.7419106,21.7590408 17.7419106,21.9228889 17.7419106,22.0539675 C17.7419106,22.3161246 17.7419106,22.5455121 17.7741101,22.7421299 C17.8063096,22.9059781 17.838509,23.0370567 17.8707085,23.1681353 C17.9351075,23.3647531 17.9995064,23.5613709 18.0639054,23.7252191 C18.1283043,23.8890673 18.2249027,24.0529155 18.3215011,24.2167637 C18.3537006,24.2495334 18.3859001,24.3150726 18.4180996,24.3478423 C18.450299,24.4133816 18.514698,24.4789208 18.5468975,24.5444601 C18.6112964,24.6099994 18.6756954,24.7083083 18.7078948,24.7738476 C18.9332912,25.0687744 19.126488,25.1998529 19.126488,25.1998529 C19.126488,25.1998529 19.126488,25.1998529 19.126488,25.1998529 C19.126488,25.1998529 19.126488,25.2326226 19.126488,25.2326226 C19.1586875,25.2326226 19.190887,25.2326226 19.2230864,25.2326226 C19.802677,25.1670833 20.3822675,25.0032351 20.9618581,24.7738476 C21.2516534,24.6755387 21.5414486,24.5444601 21.8312439,24.4133816 C21.9278423,24.3806119 21.9922413,24.3150726 22.0888397,24.282303 C25.0833909,22.8076692 27.5949499,20.186098 27.5949499,20.186098 C23.9242098,22.1195068 20.2212702,22.0539675 17.7741101,21.6279622 Z" id="XMLID_54_" fill="#9F2255" fill-rule="nonzero"></path>
                                <path d="M25.0189919,16.4831288 C24.7935956,16.1554324 24.5359998,15.8605056 24.278404,15.5328092 C24.278404,15.5328092 24.2462045,15.5000396 24.2462045,15.5000396 C23.9886087,15.1723432 23.7310129,14.8446468 23.4734171,14.5169504 C23.4734171,14.5169504 23.4734171,14.5169504 23.4734171,14.5169504 C23.2158213,14.189254 22.926026,13.8615576 22.6362308,13.5010915 C22.6040313,13.4683219 22.6040313,13.4683219 22.5718318,13.4355523 C22.4108344,13.2389344 22.2176376,13.0423166 22.0566402,12.8456988 C21.9922413,12.7801595 21.9278423,12.7146202 21.8634434,12.6490809 C21.702446,12.4852327 21.5736481,12.3213845 21.4126507,12.1575363 C21.2838528,12.0264578 21.1872544,11.9281488 21.0584565,11.7970703 C20.9618581,11.6987614 20.8330602,11.5676828 20.7364618,11.4693739 C20.5110654,11.2399864 20.2534696,10.9778293 19.9958738,10.7484418 C19.8992754,10.6501329 19.7704775,10.551824 19.6738791,10.4535151 C19.6738791,10.4535151 19.6738791,10.4535151 19.6738791,10.4535151 C19.8992754,11.1416775 20.1890707,11.8626096 20.3178686,12.5835416 C20.3500681,12.7801595 20.3822675,12.9440077 20.414467,13.1406255 C20.7364618,15.6311181 19.9636744,17.2696001 18.7078948,19.4323963 C18.6112964,19.5962445 18.514698,19.7273231 18.4180996,19.8911713 C18.1283043,20.3827159 17.9351075,20.8414908 17.838509,21.2674962 C17.8063096,21.3985747 17.7741101,21.5624229 17.7419106,21.6935015 C20.1890707,22.0867371 23.8920103,22.1850461 27.6593488,20.284407 C27.6593488,20.284407 26.9187609,19.1702392 25.7917793,17.6628358 C25.5341835,17.3351394 25.2765877,16.9746734 25.0511914,16.646977 C25.0511914,16.548668 25.0189919,16.5158984 25.0189919,16.4831288 Z" id="XMLID_53_" fill="#E2056F" fill-rule="nonzero"></path>
                                <path d="M19.1586875,25.2326226 C19.1586875,25.2326226 18.9654906,25.0687744 18.7400943,24.8066172 C18.6756954,24.741078 18.6112964,24.6755387 18.5790969,24.5772298 C18.5468975,24.5116905 18.4824985,24.4461512 18.450299,24.3806119 C18.4180996,24.3478423 18.3859001,24.282303 18.3537006,24.2495334 C18.2571022,24.1184548 18.1605038,23.9546066 18.0961048,23.7579888 C18.0317059,23.5941406 17.9351075,23.3975227 17.902908,23.2009049 C17.8707085,23.0698263 17.838509,22.9387478 17.8063096,22.7748996 C17.7741101,22.5455121 17.7419106,22.3161246 17.7741101,22.0867371 C17.7741101,21.9556586 17.8063096,21.82458 17.8063096,21.6607318 C17.838509,21.5296533 17.838509,21.3985747 17.902908,21.2347265 C17.9995064,20.8087212 18.1927033,20.3499462 18.4824985,19.8584016 C18.4824985,19.8584016 18.4824985,19.8584016 18.4824985,19.8584016 C18.5790969,19.6945534 18.6756954,19.5307053 18.7400943,19.3996267 C19.9958738,17.2368305 20.7686612,15.6311181 20.4466665,13.1078559 C20.414467,12.9440077 20.3822675,12.7473898 20.3500681,12.550772 C20.3178686,12.6818506 20.3178686,12.7801595 20.2856691,12.8784684 C20.2856691,12.8784684 20.2856691,12.911238 20.2856691,12.911238 C20.2856691,12.9767773 20.2534696,13.009547 20.2534696,13.0750862 C19.7060786,14.7135682 18.8044933,15.9915842 17.5809132,17.3351394 C17.4199159,17.5317572 17.226719,17.6956054 17.0657216,17.8922233 C16.7759264,18.2199197 16.4539316,18.5476161 16.0997374,18.8753125 C15.9709395,19.006391 15.8421416,19.1374696 15.6811442,19.3013178 C15.5523463,19.4323963 15.3913489,19.5962445 15.1981521,19.7928624 C15.0693542,20.1205588 14.9405563,20.5137944 14.8439579,20.8742605 C14.7795589,20.8414908 14.7473594,20.8414908 14.6829605,20.8087212 C12.3001994,19.8584016 10.6902256,18.6131553 10.6902256,18.6131553 C10.6902256,18.6131553 11.9138057,20.2516373 14.0067715,21.7918104 C14.1999684,21.9556586 14.3931652,22.0539675 14.5863621,22.1850461 C14.4897637,23.5613709 15.1015537,24.8721565 17.8063096,25.2653922 C18.2571022,25.3309315 18.7400943,25.3309315 19.190887,25.2653922 C19.190887,25.2653922 19.190887,25.2653922 19.1586875,25.2326226 C19.190887,25.2326226 19.1586875,25.2326226 19.1586875,25.2326226 Z" id="XMLID_52_" fill="#000000" fill-rule="nonzero"></path>
                            </g>
                        </g>
                    </g>
                </g>
            </g>
        </g>
    </g>
</svg>