<?xml version="1.0" encoding="UTF-8"?>
<svg width="194px" height="56px" viewBox="0 0 194 56" version="1.1" xmlns="http://www.w3.org/2000/svg" xmlns:xlink="http://www.w3.org/1999/xlink">
    <!-- Generator: Sketch 51.2 (57519) - http://www.bohemiancoding.com/sketch -->
    <title>shopify-logo-vector</title>
    <desc>Created with Sketch.</desc>
    <defs></defs>
    <g id="Page-1" stroke="none" stroke-width="1" fill="none" fill-rule="evenodd">
        <g id="Artboard" transform="translate(-1117.000000, -2763.000000)" fill-rule="nonzero">
            <g id="support-all-platforms" transform="translate(58.000000, 2548.000000)">
                <g id="shop-logos" transform="translate(872.000000, 196.000000)">
                    <g id="Group-3" transform="translate(144.000000, 0.000000)">
                        <g id="shopify-logo-vector" transform="translate(43.461333, 19.500000)">
                            <path d="M41.2433364,10.4632551 C41.2117565,10.1787557 40.9591174,10.0523116 40.769638,10.0207005 C40.5801587,9.98908948 36.4431931,9.7045901 36.4431931,9.7045901 C36.4431931,9.7045901 33.5694231,6.85959626 33.2852041,6.54348583 C32.9694052,6.2273754 32.3693873,6.32220853 32.1167482,6.38543062 C32.0851683,6.38543062 31.4851504,6.57509687 30.5061738,6.8912073 C29.590357,4.14104659 27.8850429,1.61216318 24.9165332,1.61216318 L24.6638941,1.61216318 C23.8112371,0.505776683 22.7691007,0 21.8848638,0 C14.9688679,0.0316110427 11.6845593,8.66142569 10.6424229,13.0553606 C7.95813229,13.8772477 6.06333889,14.4778575 5.81069977,14.5410796 C4.32644494,15.0152453 4.26328516,15.0468563 4.07380581,16.4693532 C3.91590636,17.5757397 0,47.9223407 0,47.9223407 L30.5377537,53.6439394 L47.085616,50.0718916 C47.085616,50.0402805 41.2749163,10.7477545 41.2433364,10.4632551 Z M28.8324396,7.42859503 C28.0745222,7.68148337 27.1902853,7.93437171 26.2428886,8.21887109 L26.2428886,7.64987232 C26.2428886,5.94287602 25.9902495,4.55199014 25.6112908,3.47721469 C27.1587054,3.69849199 28.2008418,5.43709934 28.8324396,7.42859503 Z M23.7480773,3.82493616 C24.1586159,4.89971161 24.4428349,6.41704166 24.4428349,8.47175943 L24.4428349,8.75625882 C22.7691007,9.2620355 20.9374671,9.83103427 19.1058335,10.400033 C20.1479698,6.48026375 22.0743431,4.55199014 23.7480773,3.82493616 Z M21.6953845,1.89666256 C21.9796035,1.89666256 22.2954024,1.99149569 22.5796214,2.18116194 C20.3690291,3.22432635 18.0005373,5.84804289 16.9899808,11.095476 C15.5373059,11.5380306 14.084631,11.9805852 12.7582756,12.3915287 C13.9583114,8.40853735 16.7373417,1.89666256 21.6953845,1.89666256 Z" id="Shape" fill="#95BF47"></path>
                            <path d="M40.7426952,9.77118781 C40.5524075,9.73939596 36.3977944,9.45326932 36.3977944,9.45326932 C36.3977944,9.45326932 33.5117653,6.59200292 33.2263339,6.27408443 C33.0994755,6.14691703 32.9409025,6.08333333 32.7823294,6.08333333 L30.4671633,53.6439394 L47.085616,50.0514605 C47.085616,50.0514605 41.2501288,10.5024003 41.2184142,10.2480655 C41.1866996,9.96193891 40.9329828,9.80297966 40.7426952,9.77118781 Z" id="Shape" fill="#5E8E3E"></path>
                            <path d="M24.9276791,19.0850051 L22.873824,25.2511966 C22.873824,25.2511966 21.072751,24.2877292 18.8925048,24.2877292 C15.6695322,24.2877292 15.5115433,26.3431264 15.5115433,26.8569757 C15.5115433,29.6831468 22.7474329,30.742961 22.7474329,37.3587706 C22.7474329,42.5614947 19.4928625,45.9015152 15.1323701,45.9015152 C9.88714005,45.9015152 7.20132951,42.5936103 7.20132951,42.5936103 L8.59163144,37.8726199 C8.59163144,37.8726199 11.3406375,40.2812885 13.6788726,40.2812885 C15.1955656,40.2812885 15.827521,39.0608964 15.827521,38.1616602 C15.827521,34.4683684 9.88714005,34.3077904 9.88714005,28.2700612 C9.88714005,23.1957995 13.489286,18.25 20.7251755,18.25 C23.5689749,18.2821156 24.9276791,19.0850051 24.9276791,19.0850051 Z" id="Shape" fill="#FFFFFF"></path>
                            <path d="M66.7421297,30.381855 C65.0874124,29.4957407 64.2282323,28.7362141 64.2282323,27.691865 C64.2282323,26.3626935 65.4056273,25.508226 67.2830949,25.508226 C69.4469559,25.508226 71.3562451,26.3943404 71.3562451,26.3943404 L72.8836764,21.7738869 C72.8836764,21.7738869 71.483531,20.6978909 67.3785594,20.6978909 C61.6506919,20.6978909 57.6730062,23.9575259 57.6730062,28.5463324 C57.6730062,31.1413816 59.5186524,33.1351389 62.0007283,34.5592513 C64.0054819,35.6985412 64.7055546,36.4897147 64.7055546,37.6922985 C64.7055546,38.9265292 63.7190885,39.9075844 61.8416208,39.9075844 C59.0731516,39.9075844 56.4637898,38.4834721 56.4637898,38.4834721 L54.840894,43.1039255 C54.840894,43.1039255 57.2593269,44.7179195 61.3006556,44.7179195 C67.1876305,44.7179195 71.4198881,41.8380479 71.4198881,36.6479495 C71.4517095,33.8313717 69.31967,31.8692613 66.7421297,30.381855 Z M90.2263861,20.666244 C87.3306309,20.666244 85.039484,22.0270625 83.2893023,24.1157606 L83.1938378,24.0841137 L85.7077352,10.9822799 L79.1525091,10.9822799 L72.788212,44.3065093 L79.343438,44.3065093 L81.5391205,32.9136104 C82.3983006,28.6096263 84.6258047,25.9512832 86.7260227,25.9512832 C88.1898111,25.9512832 88.7625978,26.9323384 88.7625978,28.3564508 C88.7625978,29.2425651 88.6671333,30.3502081 88.4762044,31.2363225 L85.9941285,44.2748624 L92.5493546,44.2748624 L95.126895,30.7932653 C95.4132883,29.3691529 95.6042172,27.6602181 95.6042172,26.5525751 C95.5723958,22.8815299 93.6312851,20.666244 90.2263861,20.666244 Z M110.401208,20.666244 C102.50948,20.666244 97.290756,27.7551589 97.290756,35.6352473 C97.290756,40.698758 100.441083,44.7495665 106.328058,44.7495665 C114.060679,44.7495665 119.311224,37.8505332 119.311224,29.7805631 C119.311224,25.0968158 116.542755,20.666244 110.401208,20.666244 Z M107.187238,39.7493497 C104.959734,39.7493497 104.005089,37.8505332 104.005089,35.5086596 C104.005089,31.7743205 105.9462,25.6664607 109.510207,25.6664607 C111.833175,25.6664607 112.596891,27.6602181 112.596891,29.5906815 C112.596891,33.6098431 110.65578,39.7493497 107.187238,39.7493497 Z M136.081147,20.666244 C131.657961,20.666244 129.144063,24.5271709 129.144063,24.5271709 L129.048599,24.5271709 L129.430457,21.0460073 L123.638946,21.0460073 C123.352553,23.4195279 122.843409,26.9956323 122.302444,29.6856223 L117.751971,53.5474162 L124.275376,53.5474162 L126.089201,43.8950991 L126.216487,43.8950991 C126.216487,43.8950991 127.552989,44.7495665 130.066886,44.7495665 C137.767686,44.7495665 142.795481,36.901125 142.795481,28.9577427 C142.827302,24.5904647 140.85437,20.666244 136.081147,20.666244 Z M129.812314,39.8442905 C128.093954,39.8442905 127.107488,38.8948823 127.107488,38.8948823 L128.189419,32.7870226 C128.953134,28.7362141 131.085174,26.0145771 133.376321,26.0145771 C135.381074,26.0145771 135.985683,27.8500997 135.985683,29.5906815 C135.985683,33.8313717 133.471785,39.8442905 129.812314,39.8442905 Z M152.182819,11.2987493 C150.082601,11.2987493 148.427884,12.9443903 148.427884,15.0647353 C148.427884,16.9951988 149.668922,18.3243703 151.514568,18.3243703 L151.610032,18.3243703 C153.646607,18.3243703 155.396789,16.9635518 155.460432,14.5583843 C155.460432,12.6595678 154.187573,11.2987493 152.182819,11.2987493 Z M143.018231,44.2748624 L149.573457,44.2748624 L154.028465,21.172595 L147.441418,21.172595 L143.018231,44.2748624 Z M170.702924,21.1409481 L166.152451,21.1409481 L166.375202,20.0649521 C166.757059,17.8496662 168.093562,15.8559089 170.257423,15.8559089 C171.434818,15.8559089 172.357641,16.1723783 172.357641,16.1723783 L173.6305,11.0772207 C173.6305,11.0772207 172.484927,10.5075758 170.066494,10.5075758 C167.743525,10.5075758 165.420557,11.1721615 163.638554,12.6912147 C161.41105,14.5900312 160.360941,17.3116682 159.851797,20.0649521 L159.660868,21.1409481 L156.606005,21.1409481 L155.651361,26.046224 L158.706223,26.046224 L155.237682,44.2748624 L161.824729,44.2748624 L165.293271,26.046224 L169.811922,26.046224 L170.702924,21.1409481 Z M186.486381,21.172595 C186.486381,21.172595 182.381409,31.457851 180.535763,37.0593597 L180.440298,37.0593597 C180.313012,35.255484 178.817402,21.172595 178.817402,21.172595 L171.91214,21.172595 L175.858004,42.3760459 C175.953469,42.85075 175.889826,43.1355725 175.730718,43.4520419 C174.967003,44.9078012 173.694143,46.3319136 172.166712,47.3762626 C170.925674,48.262377 169.55735,48.8320219 168.47542,49.2117852 L170.289244,54.75 C171.625747,54.4651775 174.362394,53.3891815 176.717184,51.2055425 C179.708404,48.4206117 182.476873,44.1166276 185.308986,38.2619435 L193.328,21.172595 L186.486381,21.172595 Z" id="Shape" fill="#000000"></path>
                        </g>
                    </g>
                </g>
            </g>
        </g>
    </g>
</svg>