<?xml version="1.0" encoding="UTF-8"?>
<svg width="57px" height="57px" viewBox="0 0 57 57" version="1.1" xmlns="http://www.w3.org/2000/svg" xmlns:xlink="http://www.w3.org/1999/xlink">
    <!-- Generator: Sketch 51.2 (57519) - http://www.bohemiancoding.com/sketch -->
    <title>whatsapp-icon</title>
    <desc>Created with Sketch.</desc>
    <defs>
        <linearGradient x1="50%" y1="0%" x2="50%" y2="100%" id="linearGradient-1">
            <stop stop-color="#62E66F" offset="0%"></stop>
            <stop stop-color="#28B53E" offset="100%"></stop>
        </linearGradient>
        <path d="M38.9480303,32.2265706 C38.2834412,31.8934583 35.0161016,30.2827124 34.4068631,30.0603819 C33.7976246,29.8381793 33.3545652,29.7271418 32.9115058,30.3934943 C32.4684464,31.0601024 31.194874,32.5599386 30.8070376,33.0044717 C30.4194563,33.4486215 30.0317475,33.5044597 29.3672859,33.1710918 C28.7025694,32.8377239 26.5611158,32.1346996 24.0226432,29.8660344 C22.0468586,28.1005517 20.7130892,25.9201798 20.3253804,25.253444 C19.9377991,24.5869637 20.2841863,24.226635 20.6169272,23.8945449 C20.9158711,23.5961876 21.2815163,23.1167716 21.613747,22.7280766 C21.9461053,22.3392538 22.0568064,22.0613408 22.2783361,21.6173187 C22.4998658,21.1727856 22.3891647,20.7839628 22.2229855,20.4507227 C22.0568064,20.1174825 20.7276283,16.8398971 20.1738678,15.5065532 C19.6343914,14.2084755 19.0864976,14.3842954 18.6785106,14.3635957 C18.2913119,14.3443015 17.8477424,14.3402127 17.4048106,14.3402127 C16.9617512,14.3402127 16.2416841,14.5068327 15.6325731,15.173313 C15.0233346,15.8400488 13.3064476,17.4509225 13.3064476,20.7282524 C13.3064476,24.0057101 15.6879236,27.171747 16.0202819,27.6161524 C16.3525127,28.0606855 20.7065849,34.7860543 27.3735188,37.6703448 C28.9591714,38.3563748 30.1971614,38.7661529 31.1622248,39.0728156 C32.7543817,39.5798313 34.2031884,39.5082766 35.3482048,39.3368011 C36.6250932,39.145648 39.280261,37.7260552 39.834149,36.1707642 C40.3879095,34.6152176 40.3879095,33.2821292 40.2217303,33.0044717 C40.0556787,32.7266864 39.6126193,32.5599386 38.9480303,32.2265706 M45.6367728,7.81506911 C40.6150507,2.77800636 33.9367661,0.00283663005 26.8214163,2.55552256e-05 C12.1607936,2.55552256e-05 0.228799224,11.9536101 0.222932578,26.6463316 C0.221019541,31.3431265 1.44574582,35.9274784 3.7734017,39.9689096 L0,53.7778035 L14.1001029,50.0720403 C17.9850984,52.1950406 22.3591938,53.314104 26.8108308,53.3156373 L26.8216714,53.3156373 L26.8217989,53.3156373 C41.4808913,53.3156373 53.4140334,41.3607749 53.4199001,26.6676702 C53.4225783,19.5473454 50.6584949,12.8520041 45.6367728,7.81506911" id="path-2"></path>
        <filter x="-17.8%" y="-15.8%" width="135.6%" height="135.3%" filterUnits="objectBoundingBox" id="filter-3">
            <feOffset dx="0" dy="1" in="SourceAlpha" result="shadowOffsetOuter1"></feOffset>
            <feGaussianBlur stdDeviation="3" in="shadowOffsetOuter1" result="shadowBlurOuter1"></feGaussianBlur>
            <feColorMatrix values="0 0 0 0 0   0 0 0 0 0   0 0 0 0 0  0 0 0 0.2 0" type="matrix" in="shadowBlurOuter1"></feColorMatrix>
        </filter>
    </defs>
    <g id="whatsapp-icon" stroke="none" stroke-width="1" fill="none" fill-rule="evenodd">
        <g id="Group-3" transform="translate(1.781250, 1.781250)">
            <g id="Fill-1">
                <use fill="black" fill-opacity="1" filter="url(#filter-3)" xlink:href="#path-2"></use>
                <use fill="url(#linearGradient-1)" fill-rule="evenodd" xlink:href="#path-2"></use>
            </g>
            <path d="M38.9480303,32.2265706 C38.2834412,31.8934583 35.0161016,30.2827124 34.4068631,30.0603819 C33.7976246,29.8381793 33.3545652,29.7271418 32.9115058,30.3934943 C32.4684464,31.0601024 31.194874,32.5599386 30.8070376,33.0044717 C30.4194563,33.4486215 30.0317475,33.5044597 29.3672859,33.1710918 C28.7025694,32.8377239 26.5611158,32.1346996 24.0226432,29.8660344 C22.0468586,28.1005517 20.7130892,25.9201798 20.3253804,25.253444 C19.9377991,24.5869637 20.2841863,24.226635 20.6169272,23.8945449 C20.9158711,23.5961876 21.2815163,23.1167716 21.613747,22.7280766 C21.9461053,22.3392538 22.0568064,22.0613408 22.2783361,21.6173187 C22.4998658,21.1727856 22.3891647,20.7839628 22.2229855,20.4507227 C22.0568064,20.1174825 20.7276283,16.8398971 20.1738678,15.5065532 C19.6343914,14.2084755 19.0864976,14.3842954 18.6785106,14.3635957 C18.2913119,14.3443015 17.8477424,14.3402127 17.4048106,14.3402127 C16.9617512,14.3402127 16.2416841,14.5068327 15.6325731,15.173313 C15.0233346,15.8400488 13.3064476,17.4509225 13.3064476,20.7282524 C13.3064476,24.0057101 15.6879236,27.171747 16.0202819,27.6161524 C16.3525127,28.0606855 20.7065849,34.7860543 27.3735188,37.6703448 C28.9591714,38.3563748 30.1971614,38.7661529 31.1622248,39.0728156 C32.7543817,39.5798313 34.2031884,39.5082766 35.3482048,39.3368011 C36.6250932,39.145648 39.280261,37.7260552 39.834149,36.1707642 C40.3879095,34.6152176 40.3879095,33.2821292 40.2217303,33.0044717 C40.0556787,32.7266864 39.6126193,32.5599386 38.9480303,32.2265706 M26.8216714,48.8151065 L26.8127439,48.8151065 C22.8458704,48.8135732 18.9550082,47.7458759 15.5606429,45.7277797 L14.7534688,45.2477248 L6.38622763,47.4467519 L8.61950701,39.2734241 L8.09393198,38.4354683 C5.88093079,34.9089749 4.71219272,30.8332997 4.71385069,26.6481204 C4.71869705,14.4360448 14.6361359,4.50068412 26.8304714,4.50068412 C32.7353789,4.50272854 38.2861195,6.80972654 42.4601111,10.9963114 C46.6339752,15.1827684 48.9312776,20.7478022 48.9291095,26.6658813 C48.9241356,38.8789792 39.0066967,48.8151065 26.8216714,48.8151065 M45.6367728,7.81506911 C40.6150507,2.77800636 33.9367661,0.00283663005 26.8214163,2.55552256e-05 C12.1607936,2.55552256e-05 0.228799224,11.9536101 0.222932578,26.6463316 C0.221019541,31.3431265 1.44574582,35.9274784 3.7734017,39.9689096 L0,53.7778035 L14.1001029,50.0720403 C17.9850984,52.1950406 22.3591938,53.314104 26.8108308,53.3156373 L26.8216714,53.3156373 L26.8217989,53.3156373 C41.4808913,53.3156373 53.4140334,41.3607749 53.4199001,26.6676702 C53.4225783,19.5473454 50.6584949,12.8520041 45.6367728,7.81506911" id="Fill-1" fill="#FFFFFF"></path>
        </g>
    </g>
</svg>