<?xml version="1.0" encoding="UTF-8"?>
<svg width="202px" height="42px" viewBox="0 0 202 42" version="1.1" xmlns="http://www.w3.org/2000/svg" xmlns:xlink="http://www.w3.org/1999/xlink">
    <!-- Generator: Sketch 51.2 (57519) - http://www.bohemiancoding.com/sketch -->
    <title>woocommerce_logo</title>
    <desc>Created with Sketch.</desc>
    <defs></defs>
    <g id="Page-1" stroke="none" stroke-width="1" fill="none" fill-rule="evenodd">
        <g id="Artboard" transform="translate(-967.000000, -2886.000000)">
            <g id="support-all-platforms" transform="translate(58.000000, 2548.000000)">
                <g id="shop-logos" transform="translate(872.000000, 196.000000)">
                    <g id="Group-5" transform="translate(0.000000, 116.000000)">
                        <g id="woocommerce_logo" transform="translate(37.364130, 26.393443)">
                            <path d="M6.35313428,0 L62.0742096,0 C65.6005057,0 68.4551263,2.85272924 68.4551263,6.37668888 L68.4551263,27.6323185 C68.4551263,31.1562781 65.6005057,34.0090074 62.0742096,34.0090074 L42.0918652,34.0090074 L44.8345399,40.7213115 L32.7723684,34.0090074 L6.38112075,34.0090074 C2.85482467,34.0090074 0.000204038649,31.1562781 0.000204038649,27.6323185 L0.000204038649,6.37668888 C-0.0277824382,2.88069717 2.8268382,0 6.35313428,0" id="Fill-1" fill="#9B5C8F"></path>
                            <path d="M3.18670801,5.85404138 C3.57770287,5.32203787 4.16419515,5.04203603 4.94618485,4.98603566 C6.37052325,4.87403492 7.18044116,5.54603935 7.37593858,7.00204895 C8.2417129,12.8540876 9.19127183,17.8101202 10.1966872,21.870147 L16.3129638,10.19407 C16.8715279,9.13006299 17.569733,8.5700593 18.4075791,8.51405893 C19.6364201,8.43005837 20.3904816,9.21406354 20.6976918,10.8660744 C21.3958969,14.590099 22.2895994,17.7541199 23.3508712,20.4421376 C24.0770045,13.3300907 25.3058454,8.20605689 27.0373941,5.04203603 C27.4563171,4.25803086 28.0707376,3.86602827 28.8806555,3.8100279 C29.5230042,3.75402753 30.1094965,3.95002883 30.6401323,4.3700316 C31.1707682,4.79003437 31.4500503,5.32203787 31.5059067,5.96604212 C31.5338349,6.47004545 31.4500503,6.89004822 31.2266246,7.31005099 C30.1374247,9.32606428 29.2437222,12.7140866 28.5175889,17.4181177 C27.8193838,21.9821478 27.5680299,25.5381712 27.7355992,28.086188 C27.7914556,28.7861926 27.6797427,29.4021967 27.4004607,29.9342002 C27.0653223,30.5502043 26.5626146,30.8862065 25.9202659,30.9422068 C25.1941326,30.9982072 24.4400711,30.662205 23.7139378,29.9062 C21.1166149,27.2461825 19.0499278,23.2701562 17.5418048,17.9781213 C15.7264715,21.562145 14.3859177,24.2501627 13.5201434,26.0421745 C11.8723794,29.2061954 10.4759692,30.8302061 9.30298465,30.9142067 C8.54892314,30.970207 7.90657446,30.3262028 7.34801038,28.9821939 C5.92367199,25.3141697 4.38762078,18.230123 2.73985675,7.73005376 C2.65607214,7.00204895 2.79571316,6.35804471 3.18670801,5.85404138" id="Fill-3" fill="#FFFFFF"></path>
                            <path d="M59.7198932,18.2935438 C59.3230518,20.1519951 58.6144066,21.5317544 57.5656117,22.4609801 C56.7435833,23.1930973 55.9782465,23.5028392 55.2696013,23.3620474 C54.5893019,23.2212557 54.0223857,22.6299302 53.5971986,21.5317544 C53.2570489,20.6588455 53.0869741,19.7859365 53.0869741,18.9693443 C53.0869741,18.2653854 53.1436657,17.5614266 53.2853947,16.9137844 C53.540507,15.7592919 54.0223857,14.6329578 54.7877226,13.5629404 C55.7231342,12.183181 56.7152375,11.620014 57.7356866,11.8171224 C58.415986,11.9579142 58.9829021,12.5492396 59.4080893,13.6474154 C59.748239,14.5203244 59.9183138,15.3932333 59.9183138,16.2098256 C59.9183138,16.9419428 59.8332764,17.6459016 59.7198932,18.2935438 M63.291465,10.4936798 C62.2710159,8.71970352 60.7686881,7.64968608 58.7561357,7.22731078 C58.2175653,7.11467736 57.7073408,7.05836066 57.2254621,7.05836066 C54.5042645,7.05836066 52.2932915,8.46627834 50.5641972,11.2821137 C49.0902152,13.6755738 48.3532241,16.322459 48.3532241,19.2227694 C48.3532241,21.3909627 48.8067571,23.249414 49.7138229,24.7981235 C50.734272,26.5720998 52.2365998,27.6421172 54.2491522,28.0644925 C54.7877226,28.1771259 55.2979471,28.2334426 55.7798258,28.2334426 C58.5293692,28.2334426 60.7403422,26.8255249 62.4410907,24.0096896 C63.9150727,21.5880712 64.6520637,18.9411859 64.6520637,16.0408755 C64.6520637,13.8445239 64.1985308,12.0142309 63.291465,10.4936798" id="Fill-5" fill="#FFFFFF"></path>
                            <path d="M42.3344642,18.2935438 C41.9376229,20.1519951 41.2289777,21.5317544 40.1801828,22.4609801 C39.3581544,23.1930973 38.5928176,23.5028392 37.8841724,23.3620474 C37.203873,23.2212557 36.6369568,22.6299302 36.2117697,21.5317544 C35.87162,20.6588455 35.7015452,19.7859365 35.7015452,18.9693443 C35.7015452,18.2653854 35.7582368,17.5614266 35.8999658,16.9137844 C36.1550781,15.7592919 36.6369568,14.6329578 37.4022937,13.5629404 C38.3377053,12.183181 39.3298086,11.620014 40.3502577,11.8171224 C41.0305571,11.9579142 41.5974732,12.5492396 42.0226604,13.6474154 C42.3628101,14.5203244 42.5328849,15.3932333 42.5328849,16.2098256 C42.5328849,16.9419428 42.4761933,17.6459016 42.3344642,18.2935438 M45.9060361,10.4936798 C44.885587,8.71970352 43.3549133,7.64968608 41.3707068,7.22731078 C40.8321364,7.11467736 40.3219119,7.05836066 39.8400331,7.05836066 C37.1188356,7.05836066 34.9078626,8.46627834 33.1787683,11.2821137 C31.7047862,13.6755738 30.9677952,16.322459 30.9677952,19.2227694 C30.9677952,21.3909627 31.4213282,23.249414 32.328394,24.7981235 C33.3488431,26.5720998 34.8511709,27.6421172 36.8637233,28.0644925 C37.4022937,28.1771259 37.9125182,28.2334426 38.3943969,28.2334426 C41.1439403,28.2334426 43.3549133,26.8255249 45.0556618,24.0096896 C46.5296438,21.5880712 47.2666348,18.9411859 47.2666348,16.0408755 C47.2666348,13.8445239 46.8131019,12.0142309 45.9060361,10.4936798" id="Fill-7" fill="#FFFFFF"></path>
                            <path d="M195.725954,22.5805446 L195.725954,19.1062652 L200.266849,19.1062652 L200.266849,15.1556732 L195.725954,15.1556732 L195.725954,11.6533754 L200.991163,11.6533754 L200.991163,7.59070993 L190.627894,7.59070993 L190.627894,26.6712285 L201.019022,26.6712285 L201.019022,22.608563 L195.725954,22.608563 L195.725954,22.5805446 Z M179.094579,9.83218053 C177.228076,11.6813938 176.308754,14.0349379 176.308754,16.892813 C176.308754,19.9468167 177.228076,22.4404527 179.066721,24.3176843 C180.905365,26.194916 183.301175,27.147541 186.282007,27.147541 C187.145613,27.147541 188.120652,27.0074491 189.179265,26.6992469 L189.179265,22.1602689 C188.204227,22.4404527 187.368479,22.5805446 186.644165,22.5805446 C185.167677,22.5805446 183.997631,22.0762137 183.106167,21.0955703 C182.214703,20.0869086 181.768971,18.7420262 181.768971,17.0329049 C181.768971,15.4358571 182.214703,14.1189931 183.078309,13.1103313 C183.969773,12.0736511 185.056244,11.5693203 186.39344,11.5693203 C187.257046,11.5693203 188.176368,11.7094122 189.179265,11.989596 L189.179265,7.45061801 C188.259943,7.19845257 187.229188,7.08637904 186.142716,7.08637904 C183.329033,7.05836066 180.961082,7.98296728 179.094579,9.83218053 Z M167.421972,15.800096 L167.421972,11.261118 C168.647735,11.2891364 169.511341,11.4852651 170.040647,11.8775225 C170.569954,12.2697798 170.820678,12.8861842 170.820678,13.7827725 C170.820678,15.0996365 169.67849,15.7720776 167.421972,15.800096 Z M175.277998,16.1082982 C175.807305,15.2397284 176.085888,14.3431401 176.085888,13.4185335 C176.085888,11.625357 175.389431,10.1964195 173.996519,9.15973935 C172.603606,8.12305919 170.681387,7.59070993 168.285578,7.59070993 L162.323912,7.59070993 L162.323912,26.6712285 L167.44983,26.6712285 L167.44983,17.9855299 L167.533405,17.9855299 L171.684284,26.6712285 L177.088785,26.6712285 L172.993622,18.069585 C173.968661,17.6212909 174.748692,16.9768681 175.277998,16.1082982 Z M155.582216,19.1342836 L160.12311,19.1342836 L160.12311,15.1836916 L155.582216,15.1836916 L155.582216,11.6813938 L160.819567,11.6813938 L160.819567,7.61872831 L150.456297,7.61872831 L150.456297,26.6992469 L160.847425,26.6992469 L160.847425,22.6365814 L155.582216,22.6365814 L155.582216,19.1342836 Z M139.814446,7.59070993 L138.811549,11.8775225 C138.560825,12.9702394 138.3101,14.0909747 138.087234,15.2397284 L137.530069,18.2096769 C137.000763,15.2397284 136.276448,11.7094122 135.357126,7.59070993 L128.894012,7.59070993 L126.470344,26.6712285 L131.31768,26.6712285 L132.627017,13.530607 L135.942149,26.6712285 L139.396572,26.6712285 L142.544554,13.5586254 L143.909609,26.6712285 L148.97981,26.6712285 L146.416851,7.59070993 L139.814446,7.59070993 Z M116.608523,7.59070993 L115.605626,11.8775225 C115.354902,12.9702394 115.104178,14.0909747 114.881312,15.2397284 L114.324147,18.2096769 C113.79484,15.2397284 113.070526,11.7094122 112.151203,7.59070993 L105.688089,7.59070993 L103.264421,26.6712285 L108.111757,26.6712285 L109.421095,13.530607 L112.736227,26.6712285 L116.19065,26.6712285 L119.36649,13.5586254 L120.731544,26.6712285 L125.801746,26.6712285 L123.238787,7.59070993 L116.608523,7.59070993 Z M96.5784414,21.6279196 C96.0769929,22.4124343 95.3248201,22.8046917 94.3776396,22.8046917 C93.4861756,22.8046917 92.8175776,22.4124343 92.3439874,21.6279196 C91.8703971,20.8434049 91.6475311,19.2743755 91.6475311,16.892813 C91.6475311,13.2224048 92.5668534,11.40121 94.4333561,11.40121 C96.3834336,11.40121 97.3863307,13.2504232 97.3863307,16.9768681 C97.3584724,19.2743755 97.0798899,20.8434049 96.5784414,21.6279196 Z M94.3776396,7.05836066 C91.8146806,7.05836066 89.8088866,7.92693052 88.3602576,9.63605186 C86.9116285,11.3451732 86.2151723,13.7547541 86.2151723,16.8367762 C86.2151723,20.1709637 86.9394868,22.7206365 88.3602576,24.4857946 C89.7810283,26.2509527 91.8703971,27.147541 94.6005056,27.147541 C97.2470394,27.147541 99.2806917,26.2509527 100.701462,24.4857946 C102.122233,22.7206365 102.846548,20.2270005 102.846548,17.0329049 C102.846548,13.8388092 102.122233,11.3731916 100.673604,9.63605186 C99.1971169,7.92693052 97.1077482,7.05836066 94.3776396,7.05836066 Z M75.0440139,9.83218053 C73.1775112,11.6813938 72.2581889,14.0349379 72.2581889,16.892813 C72.2581889,19.9468167 73.1775112,22.4404527 75.0161557,24.3176843 C76.8548002,26.194916 79.2506097,27.147541 82.2314425,27.147541 C83.0950483,27.147541 84.070087,27.0074491 85.1287005,26.6992469 L85.1287005,22.1602689 C84.1536618,22.4404527 83.3179143,22.5805446 82.5935998,22.5805446 C81.1171125,22.5805446 79.947066,22.0762137 79.055602,21.0955703 C78.164138,20.0869086 77.718406,18.7420262 77.718406,17.0329049 C77.718406,15.4358571 78.164138,14.1189931 79.0277437,13.1103313 C79.9192077,12.0736511 81.0056795,11.5693203 82.3428755,11.5693203 C83.2064813,11.5693203 84.1258035,11.7094122 85.1287005,11.989596 L85.1287005,7.45061801 C84.2093783,7.19845257 83.178623,7.08637904 82.0921512,7.08637904 C79.2506097,7.05836066 76.9105167,7.98296728 75.0440139,9.83218053 Z" id="Fill-9" fill="#000000"></path>
                        </g>
                    </g>
                </g>
            </g>
        </g>
    </g>
</svg>