<?xml version="1.0" encoding="UTF-8"?>
<svg width="246px" height="52px" viewBox="0 0 246 52" version="1.1" xmlns="http://www.w3.org/2000/svg" xmlns:xlink="http://www.w3.org/1999/xlink">
    <!-- Generator: Sketch 51.2 (57519) - http://www.bohemiancoding.com/sketch -->
    <title>Group</title>
    <desc>Created with Sketch.</desc>
    <defs></defs>
    <g id="Group" stroke="none" stroke-width="1" fill="none" fill-rule="evenodd">
        <g transform="translate(3.500000, 68.000000) rotate(-9.000000) translate(-3.500000, -68.000000) translate(-54.000000, 9.000000)" fill-rule="nonzero" stroke="#223D65">
            <g id="Group-2" transform="translate(103.629784, 8.579019) rotate(16.000000) translate(-103.629784, -8.579019) translate(93.609982, 2.600052)" stroke-linecap="round" stroke-linejoin="round" stroke-width="2.268">
                <path d="M0.679170749,11.2301188 C0.679170749,11.2301188 5.70580363,-1.20772415 19.762491,5.01119732 C13.223827,13.9442947 0.679170749,11.2301188 0.679170749,11.2301188 Z" id="Path-3" fill="#FFFFFF" transform="translate(10.220831, 7.443895) rotate(-2.000000) translate(-10.220831, -7.443895) "></path>
                <path d="M1.23239444,11.5751286 C1.01645745,9.10388375 1.01645745,7.22370529 1.23239444,5.93459324 C1.44833144,4.64548119 2.07822251,2.76530273 3.12206765,0.294057866" id="Path-4" transform="translate(2.096255, 5.934593) rotate(11.000000) translate(-2.096255, -5.934593) "></path>
            </g>
            <path d="M81.4108911,35.6481836 C90.6548254,35.6481836 98.1485149,28.2236437 98.1485149,19.0650096 C98.1485149,17.9235779 96.792139,20.1415564 96.5704672,19.0650096 C95.013486,11.5035455 89.5027629,2.48183556 81.4108911,2.48183556 C72.1669567,2.48183556 64.6732673,9.90637546 64.6732673,19.0650096 C64.6732673,28.2236437 72.1669567,35.6481836 81.4108911,35.6481836 Z" id="Oval" stroke-width="1.8144" fill="#FFFFFF"></path>
            <path d="M86.8762376,41.2887189 C96.749011,41.2887189 104.752475,33.3591083 104.752475,23.5774379 C104.752475,13.7957674 95.8506711,9.67528083 85.9778977,9.67528083 C76.1051243,9.67528083 69,13.7957674 69,23.5774379 C69,29.1353409 64.9574704,33.8886986 69,37.1358748 C72.0721487,39.6035891 82.6131316,41.2887189 86.8762376,41.2887189 Z" id="Oval" stroke-width="1.8144" fill="#FFFFFF"></path>
            <path d="M67.4795776,30.5734695 C65.6063328,27.3071713 64.6732673,23.1973898 64.6732673,19.0650096 C64.6732673,9.90637546 72.1669567,2.48183556 81.4108911,2.48183556 C86.4740254,2.48183556 90.5266187,6.01390936 93.2324281,10.5103013 C99.8231106,12.1543874 104.752475,16.2984753 104.752475,23.5774379 C104.752475,33.3591083 96.749011,41.2887189 86.8762376,41.2887189 C82.6131316,41.2887189 72.0721487,39.6035891 69,37.1358748 C66.4811569,35.1126052 66.8464054,33.1271833 67.4795776,30.5734695 Z" id="Combined-Shape" stroke-width="2.268" fill="#FFFFFF"></path>
            <path d="M86.8762376,41.2887189 C96.749011,41.2887189 104.752475,33.3591083 104.752475,23.5774379 C104.752475,13.7957674 95.8506711,9.67528083 85.9778977,9.67528083" id="Oval" stroke-width="2.268" fill="#FFFFFF" stroke-linecap="round"></path>
        </g>
        <path d="M68.202,40 L65.516,40 C64.836,40 64.496,39.694 64.53,39.048 L64.53,23.986 C64.496,23.34 64.836,23 65.516,23 L67.93,23 C68.542,23 68.848,23.238 68.848,23.68 L68.848,23.748 C69.664,23.068 70.752,22.728 72.146,22.728 L73.54,22.728 C74.186,22.728 74.526,23.068 74.526,23.714 L74.526,26.434 C74.526,27.08 74.186,27.42 73.54,27.386 L72.112,27.386 C70.48,27.386 69.256,28.576 69.154,30.106 L69.154,39.048 C69.188,39.694 68.848,40 68.202,40 Z M91.866,33.064 L81.564,33.064 C81.564,33.846 82.006,34.526 82.89,35.138 C83.808,35.75 84.76,36.056 85.814,36.056 C86.97,36.056 88.126,35.784 89.282,35.206 C89.622,35.036 89.894,34.968 90.064,34.968 C90.37,34.968 90.608,35.138 90.812,35.512 L91.764,37.212 C91.9,37.416 91.968,37.586 91.968,37.756 C91.968,38.062 91.798,38.3 91.424,38.538 C89.622,39.694 87.616,40.272 85.474,40.272 C82.856,40.272 80.68,39.456 79.014,37.79 C77.348,36.124 76.532,34.05 76.532,31.5 C76.532,29.018 77.348,26.944 79.014,25.278 C80.68,23.578 82.754,22.728 85.168,22.728 C87.548,22.728 89.418,23.51 90.778,25.04 C92.172,26.57 92.852,28.61 92.852,31.16 C92.852,32.418 92.512,33.064 91.866,33.064 Z M81.496,29.664 L88.194,29.664 C88.194,28.134 86.936,26.774 84.998,26.774 C84.114,26.774 83.298,27.08 82.584,27.658 C81.87,28.236 81.496,28.882 81.496,29.664 Z M103.392,40.272 C100.978,40.272 98.904,39.422 97.17,37.688 C95.436,35.954 94.586,33.914 94.586,31.5 C94.586,29.12 95.436,27.08 97.17,25.346 C98.904,23.612 100.944,22.728 103.358,22.728 C104.888,22.728 106.418,23.17 107.948,24.02 L107.948,23.884 C107.948,23.306 108.254,23 108.9,23 L111.178,23 C111.824,23 112.164,23.34 112.164,23.986 L112.164,39.048 C112.164,39.694 111.824,40 111.178,40 L108.9,40 C108.254,40 107.948,39.728 107.948,39.15 L107.948,39.014 C106.554,39.864 105.024,40.272 103.392,40.272 Z M103.358,35.716 C104.514,35.716 105.5,35.308 106.316,34.492 C107.132,33.676 107.54,32.69 107.54,31.5 C107.54,30.31 107.132,29.324 106.316,28.508 C105.534,27.692 104.514,27.284 103.324,27.284 C102.168,27.284 101.182,27.692 100.366,28.508 C99.584,29.324 99.176,30.31 99.176,31.5 C99.176,33.846 101.012,35.716 103.358,35.716 Z M123.622,40.272 C121.208,40.272 119.134,39.422 117.4,37.722 C115.7,35.988 114.85,33.914 114.85,31.466 C114.85,29.052 115.7,27.012 117.4,25.312 C119.134,23.578 121.174,22.728 123.588,22.728 C126.002,22.728 128.11,23.612 129.912,25.414 C130.32,25.822 130.524,26.162 130.524,26.4 C130.524,26.706 130.388,26.944 130.082,27.148 L128.144,28.61 C127.906,28.78 127.668,28.882 127.498,28.882 C127.26,28.882 127.022,28.746 126.784,28.508 C125.934,27.726 124.914,27.352 123.758,27.352 C122.568,27.352 121.582,27.76 120.766,28.542 C119.984,29.324 119.576,30.31 119.576,31.466 C119.576,32.622 119.984,33.608 120.766,34.424 C121.582,35.206 122.568,35.614 123.758,35.614 C124.88,35.614 125.866,35.172 126.682,34.288 C127.09,33.846 127.43,33.642 127.668,33.642 C127.736,33.642 127.906,33.71 128.178,33.812 L130.558,35.002 C130.932,35.172 131.102,35.41 131.102,35.75 C131.102,36.056 130.796,36.566 130.184,37.28 C128.382,39.286 126.206,40.272 123.622,40.272 Z M138.514,17.186 L138.514,23.34 C139.568,22.932 140.554,22.728 141.54,22.728 C146.402,22.728 148.986,25.652 148.986,30.242 L148.986,39.048 C148.986,39.694 148.68,40 148.034,40 L145.348,40 C144.702,40 144.396,39.694 144.396,39.048 L144.396,30.31 C144.396,28.678 143.07,27.352 141.438,27.352 C139.84,27.352 138.48,28.712 138.48,30.31 L138.48,39.048 C138.48,39.694 138.14,40 137.494,40 L134.842,40 C134.196,40 133.89,39.694 133.89,39.048 L133.89,17.186 C133.89,16.54 134.196,16.2 134.842,16.2 L137.528,16.2 C138.174,16.2 138.514,16.54 138.514,17.186 Z M156.704,39.184 L156.704,46.018 C156.738,46.664 156.398,46.97 155.752,46.97 L153.066,46.97 C152.386,46.97 152.046,46.664 152.08,46.018 L152.08,23.986 C152.046,23.34 152.386,23 153.066,23 L155.48,23 C156.126,22.966 156.466,23.238 156.466,23.85 L156.466,23.918 C157.996,23.136 159.458,22.728 160.886,22.728 C163.3,22.728 165.34,23.612 167.074,25.346 C168.808,27.08 169.692,29.12 169.692,31.5 C169.692,33.914 168.808,35.954 167.074,37.688 C165.34,39.422 163.3,40.272 160.886,40.272 C159.492,40.272 158.098,39.898 156.704,39.184 Z M160.886,27.284 C159.73,27.284 158.744,27.692 157.928,28.508 C157.146,29.324 156.738,30.31 156.738,31.5 C156.738,33.846 158.574,35.716 160.92,35.716 C163.266,35.716 165.102,33.846 165.102,31.5 C165.102,30.31 164.694,29.324 163.878,28.508 C163.096,27.692 162.076,27.284 160.886,27.284 Z M187.236,33.064 L176.934,33.064 C176.934,33.846 177.376,34.526 178.26,35.138 C179.178,35.75 180.13,36.056 181.184,36.056 C182.34,36.056 183.496,35.784 184.652,35.206 C184.992,35.036 185.264,34.968 185.434,34.968 C185.74,34.968 185.978,35.138 186.182,35.512 L187.134,37.212 C187.27,37.416 187.338,37.586 187.338,37.756 C187.338,38.062 187.168,38.3 186.794,38.538 C184.992,39.694 182.986,40.272 180.844,40.272 C178.226,40.272 176.05,39.456 174.384,37.79 C172.718,36.124 171.902,34.05 171.902,31.5 C171.902,29.018 172.718,26.944 174.384,25.278 C176.05,23.578 178.124,22.728 180.538,22.728 C182.918,22.728 184.788,23.51 186.148,25.04 C187.542,26.57 188.222,28.61 188.222,31.16 C188.222,32.418 187.882,33.064 187.236,33.064 Z M176.866,29.664 L183.564,29.664 C183.564,28.134 182.306,26.774 180.368,26.774 C179.484,26.774 178.668,27.08 177.954,27.658 C177.24,28.236 176.866,28.882 176.866,29.664 Z M198.762,40.272 C196.348,40.272 194.274,39.422 192.54,37.688 C190.806,35.954 189.956,33.914 189.956,31.5 C189.956,29.12 190.806,27.08 192.54,25.346 C194.274,23.612 196.314,22.728 198.728,22.728 C200.258,22.728 201.788,23.17 203.318,24.02 L203.318,23.884 C203.318,23.306 203.624,23 204.27,23 L206.548,23 C207.194,23 207.534,23.34 207.534,23.986 L207.534,39.048 C207.534,39.694 207.194,40 206.548,40 L204.27,40 C203.624,40 203.318,39.728 203.318,39.15 L203.318,39.014 C201.924,39.864 200.394,40.272 198.762,40.272 Z M198.728,35.716 C199.884,35.716 200.87,35.308 201.686,34.492 C202.502,33.676 202.91,32.69 202.91,31.5 C202.91,30.31 202.502,29.324 201.686,28.508 C200.904,27.692 199.884,27.284 198.694,27.284 C197.538,27.284 196.552,27.692 195.736,28.508 C194.954,29.324 194.546,30.31 194.546,31.5 C194.546,33.846 196.382,35.716 198.728,35.716 Z M218.992,40.272 C216.578,40.272 214.504,39.422 212.77,37.722 C211.07,35.988 210.22,33.914 210.22,31.466 C210.22,29.052 211.07,27.012 212.77,25.312 C214.504,23.578 216.544,22.728 218.958,22.728 C221.372,22.728 223.48,23.612 225.282,25.414 C225.69,25.822 225.894,26.162 225.894,26.4 C225.894,26.706 225.758,26.944 225.452,27.148 L223.514,28.61 C223.276,28.78 223.038,28.882 222.868,28.882 C222.63,28.882 222.392,28.746 222.154,28.508 C221.304,27.726 220.284,27.352 219.128,27.352 C217.938,27.352 216.952,27.76 216.136,28.542 C215.354,29.324 214.946,30.31 214.946,31.466 C214.946,32.622 215.354,33.608 216.136,34.424 C216.952,35.206 217.938,35.614 219.128,35.614 C220.25,35.614 221.236,35.172 222.052,34.288 C222.46,33.846 222.8,33.642 223.038,33.642 C223.106,33.642 223.276,33.71 223.548,33.812 L225.928,35.002 C226.302,35.172 226.472,35.41 226.472,35.75 C226.472,36.056 226.166,36.566 225.554,37.28 C223.752,39.286 221.576,40.272 218.992,40.272 Z M233.884,17.186 L233.884,23.34 C234.938,22.932 235.924,22.728 236.91,22.728 C241.772,22.728 244.356,25.652 244.356,30.242 L244.356,39.048 C244.356,39.694 244.05,40 243.404,40 L240.718,40 C240.072,40 239.766,39.694 239.766,39.048 L239.766,30.31 C239.766,28.678 238.44,27.352 236.808,27.352 C235.21,27.352 233.85,28.712 233.85,30.31 L233.85,39.048 C233.85,39.694 233.51,40 232.864,40 L230.212,40 C229.566,40 229.26,39.694 229.26,39.048 L229.26,17.186 C229.26,16.54 229.566,16.2 230.212,16.2 L232.898,16.2 C233.544,16.2 233.884,16.54 233.884,17.186 Z" id="reachpeach" fill="#223D65"></path>
    </g>
</svg>