<svg width="17px" height="16px" viewBox="0 0 17 16" version="1.1" xmlns="http://www.w3.org/2000/svg" xmlns:xlink="http://www.w3.org/1999/xlink">
    <g id="Page-1" stroke="none" stroke-width="1" fill="none" fill-rule="evenodd">
        <g id="Artboard" transform="translate(-492.000000, -6353.000000)" fill="#FFFFFF">
            <g id="footer" transform="translate(289.000000, 6174.000000)">
                <g id="social-icons" transform="translate(72.000000, 179.000000)">
                    <path d="M139.293126,0 C134.851818,0 131.266667,3.6692799 131.266667,8.21480574 C131.266667,11.8293203 133.567585,14.8961811 136.778169,15.9914885 C137.206246,16.0462539 137.313266,15.8271924 137.313266,15.6081309 L137.313266,14.1842312 C135.065857,14.6771196 134.58427,13.0889238 134.58427,13.0889238 C134.209702,12.1579125 133.674604,11.8840856 133.674604,11.8840856 C132.925468,11.3911973 133.728114,11.3911973 133.728114,11.3911973 C134.53076,11.4459627 134.958838,12.2126779 134.958838,12.2126779 C135.654464,13.4722814 136.831678,13.0889238 137.313266,12.8698623 C137.366776,12.3222086 137.580815,11.9936164 137.848363,11.7745549 C136.082542,11.5554934 134.209702,10.8435436 134.209702,7.72191739 C134.209702,6.84567145 134.53076,6.07895625 135.012348,5.53130253 C134.905328,5.31224104 134.63778,4.49076047 135.065857,3.34068767 C135.065857,3.34068767 135.761484,3.12162618 137.259756,4.16216824 C137.901873,3.99787213 138.597499,3.88834138 139.293126,3.88834138 C139.988752,3.88834138 140.684379,3.99787213 141.326496,4.16216824 C142.878278,3.12162618 143.520394,3.34068767 143.520394,3.34068767 C143.948472,4.49076047 143.680924,5.31224104 143.573904,5.53130253 C144.109001,6.07895625 144.37655,6.84567145 144.37655,7.72191739 C144.37655,10.8983089 142.50371,11.5554934 140.737889,11.7745549 C141.005437,12.0483817 141.272986,12.5412701 141.272986,13.3079853 L141.272986,15.5533655 C141.272986,15.772427 141.433515,16.0462539 141.808083,15.9367231 C145.018667,14.8414157 147.266075,11.7745549 147.266075,8.16004037 C147.319585,3.6692799 143.734433,0 139.293126,0 Z" id="Shape"></path>
                </g>
            </g>
        </g>
    </g>
</svg>