<svg width="20px" height="16px" viewBox="0 0 20 16" version="1.1" xmlns="http://www.w3.org/2000/svg" xmlns:xlink="http://www.w3.org/1999/xlink">
    <g id="Page-1" stroke="none" stroke-width="1" fill="none" fill-rule="evenodd">
        <g id="Artboard" transform="translate(-460.000000, -6354.000000)" fill="#FFFFFF" fill-rule="nonzero">
            <g id="twitter-logo-silhouette" transform="translate(460.000000, 6354.000000)">
                <path d="M20,1.90387149 C19.2638889,2.22454618 18.4740523,2.4420241 17.644183,2.53911647 C18.4915359,2.04025703 19.1401634,1.24899598 19.4475817,0.309044177 C18.6527451,0.77102008 17.7753922,1.1064739 16.8405556,1.28832129 C16.0919608,0.503196787 15.0271569,0.0141686747 13.8461111,0.0141686747 C11.5802941,0.0141686747 9.74313725,1.82033735 9.74313725,4.04671486 C9.74313725,4.3624739 9.77937908,4.6708755 9.84937908,4.96578313 C6.44003268,4.79742972 3.41686275,3.1915502 1.39349673,0.75135743 C1.03980392,1.34605622 0.838594771,2.03900402 0.838594771,2.7786988 C0.838594771,4.17818474 1.56346405,5.41301205 2.66326797,6.13545382 C1.99088235,6.1133494 1.35849673,5.93150201 0.804869281,5.62923695 L0.804869281,5.67961446 C0.804869281,7.63322088 2.21960784,9.26367871 4.0954902,9.63476305 C3.75179739,9.72568675 3.38937908,9.77606426 3.01444444,9.77606426 C2.7495098,9.77606426 2.49330065,9.75026506 2.2420915,9.70110843 C2.76447712,11.3045462 4.27921569,12.4705542 6.07388889,12.5025221 C4.67039216,13.5837751 2.90071895,14.2263775 0.978594771,14.2263775 C0.647418301,14.2263775 0.32120915,14.2067149 3.26797386e-05,14.1710843 C1.81594771,15.3174618 3.97179739,15.9858635 6.28885621,15.9858635 C13.8361765,15.9858635 17.9616667,9.83996787 17.9616667,4.50994378 L17.9479085,3.98775904 C18.7539869,3.42252209 19.4513399,2.71235341 20,1.90387149 Z" id="Shape"></path>
            </g>
        </g>
    </g>
</svg>